<svg width="375" height="460" viewBox="0 0 375 460" fill="none" xmlns="http://www.w3.org/2000/svg">
<g opacity="0.15">
<path fill-rule="evenodd" clip-rule="evenodd" d="M353.173 390.173C308.786 434.56 249.772 459.004 187.001 459.004C124.229 459.004 65.2143 434.56 20.8274 390.173C-23.5596 345.786 -48.0037 286.771 -48.0037 224C-48.0037 161.228 -23.5596 102.213 20.8274 57.8264C65.2143 13.4404 124.229 -11.0037 187.001 -11.0037C249.772 -11.0037 308.786 13.4404 353.173 57.8264C397.56 102.213 422.004 161.228 422.004 224C422.004 286.771 397.56 345.786 353.173 390.173ZM353.877 57.122C309.303 12.5477 250.037 -12 187.001 -12C123.963 -12 64.6973 12.5477 20.123 57.122C-24.4513 101.697 -49 160.962 -49 224C-49 287.037 -24.4513 346.303 20.123 390.877C64.6973 435.451 123.963 460 187.001 460C250.037 460 309.303 435.451 353.877 390.877C398.451 346.303 423 287.037 423 224C423 160.962 398.451 101.697 353.877 57.122ZM349.925 386.623C306.487 430.142 248.702 454.141 187.214 454.198H186.994C125.59 454.196 67.8416 430.309 24.3762 386.924C-19.142 343.486 -43.1408 285.701 -43.1976 224.213C-43.2534 162.724 -19.3632 104.894 24.0753 61.3752C67.5128 17.857 125.299 -6.14178 186.787 -6.19857H187.006C248.41 -6.19857 306.158 17.6896 349.623 61.0743C393.142 104.513 417.141 162.298 417.198 223.786C417.254 285.275 393.363 343.105 349.925 386.623ZM350.328 60.3699C306.671 16.7939 248.68 -7.19487 187.006 -7.19487H186.786C125.032 -7.13708 66.9967 16.9643 23.3699 60.6718C-20.2559 104.379 -44.2507 162.459 -44.1939 224.214C-44.1361 285.967 -20.0347 344.003 23.6718 387.629C67.3295 431.206 125.32 455.194 186.995 455.194H187.214C248.968 455.136 307.003 431.035 350.63 387.327C394.256 343.62 418.251 285.54 418.194 223.785C418.136 162.031 394.035 103.996 350.328 60.3699ZM346.677 383.074C304.187 425.726 247.63 449.277 187.426 449.39H186.988C126.949 449.39 70.4728 426.062 27.926 383.676C-14.7264 341.186 -38.2769 284.629 -38.3914 224.426C-38.505 164.221 -15.1678 107.576 27.3222 64.925C69.8132 22.2736 126.37 -1.27787 186.574 -1.39244C186.722 -1.39244 186.866 -1.39244 187.013 -1.39244C247.052 -1.39244 303.527 21.9358 346.075 64.3222C388.726 106.812 412.278 163.369 412.391 223.573C412.506 283.778 389.168 340.423 346.677 383.074ZM346.777 63.6158C304.04 21.0401 247.322 -2.38874 187.013 -2.38874C186.869 -2.38874 186.717 -2.38874 186.572 -2.38874C126.102 -2.27416 69.2952 21.3819 26.6168 64.2216C-16.0605 107.061 -39.5023 163.957 -39.3877 224.428C-39.2732 284.898 -15.6171 341.705 27.2226 384.382C69.9597 426.959 126.679 450.39 186.988 450.387H187.428C247.898 450.273 304.705 426.617 347.382 383.777C390.06 340.938 413.502 284.042 413.388 223.571C413.273 163.101 389.617 106.294 346.777 63.6158ZM343.43 379.524C301.886 421.309 246.559 444.414 187.64 444.584C187.416 444.585 187.204 444.585 186.981 444.585C128.31 444.582 73.101 421.814 31.4738 380.429C-10.3089 338.886 -33.414 283.559 -33.5853 224.639C-33.7557 165.718 -10.9714 110.257 30.5701 68.4738C72.1137 26.6911 127.441 3.58505 186.361 3.41468C186.584 3.41369 186.796 3.41369 187.019 3.41369C245.69 3.41369 300.9 26.185 342.525 67.5701C384.309 109.113 407.414 164.44 407.585 223.36C407.756 282.281 384.971 337.742 343.43 379.524ZM343.229 66.8638C301.409 25.2864 245.963 2.41739 187.019 2.41739C186.802 2.41739 186.574 2.41739 186.357 2.41839H186.358C127.171 2.58975 71.5946 25.7995 29.8638 67.7714C-11.8661 109.744 -34.753 165.455 -34.5816 224.642C-34.4102 283.828 -11.2005 339.405 30.7714 381.136C72.5909 422.713 128.037 445.585 186.981 445.582C187.198 445.582 187.426 445.582 187.642 445.581C246.829 445.409 302.405 422.2 344.136 380.228C385.865 338.256 408.753 282.545 408.582 223.357C408.41 164.171 385.2 108.594 343.229 66.8638ZM340.181 375.975C299.587 416.892 245.488 439.551 187.851 439.778C187.556 439.779 187.269 439.78 186.976 439.78C129.669 439.777 75.7292 417.567 35.0236 377.181C-5.89228 336.587 -28.552 282.488 -28.7792 224.851C-29.0073 167.215 -6.776 112.939 33.8191 72.0226C74.4131 31.1067 128.512 8.44797 186.148 8.21982C186.44 8.21882 186.731 8.21782 187.023 8.21782C244.334 8.21782 298.268 30.4292 338.976 70.8181C379.892 111.413 402.552 165.511 402.779 223.148C403.007 280.784 380.776 335.06 340.181 375.975ZM339.678 70.1107C298.574 29.3283 244.065 7.03323 186.145 7.22352C128.241 7.45267 73.894 30.216 33.1117 71.3212C-7.67067 112.426 -30.0046 166.953 -29.7755 224.855C-29.5473 282.759 -6.78297 337.106 34.3222 377.888C75.2191 418.463 129.401 440.776 186.976 440.776C187.268 440.776 187.562 440.775 187.855 440.774C245.759 440.546 300.106 417.783 340.888 376.678C381.671 335.572 404.005 281.046 403.775 223.144C403.547 165.241 380.783 110.893 339.678 70.1107ZM336.933 372.427C297.287 412.476 244.418 434.689 188.065 434.973C187.703 434.975 187.345 434.976 186.983 434.976C71.1473 434.974 -23.3872 341.033 -23.9731 225.065C-24.5609 108.734 69.604 13.6138 185.935 13.0269C186.297 13.025 186.655 13.024 187.017 13.024C302.854 13.024 397.387 106.966 397.973 222.934C398.257 279.288 376.58 332.379 336.933 372.427ZM336.128 73.3576C296.151 33.7818 243.24 12.0277 187.029 12.0277C186.664 12.0277 186.296 12.0287 185.929 12.0306C69.0491 12.6205 -25.5592 108.189 -24.9694 225.07C-24.3805 341.593 70.5893 435.972 186.983 435.972C187.339 435.972 187.714 435.971 188.071 435.969C304.951 435.38 399.559 339.81 398.969 222.93C398.683 166.311 376.365 113.192 336.128 73.3576ZM333.685 368.878C294.988 408.059 243.347 429.825 188.278 430.167C187.841 430.17 187.416 430.17 186.98 430.17C73.8951 430.164 -18.4655 338.521 -19.1669 225.278C-19.8713 111.596 72.0409 18.5375 185.722 17.8321C186.159 17.8291 186.584 17.8281 187.019 17.8281C300.105 17.8281 392.465 109.478 393.167 222.721C393.508 277.79 372.384 329.697 333.685 368.878ZM187.019 16.8318C186.589 16.8318 186.148 16.8338 185.716 16.8358C71.487 17.5441 -20.8716 111.053 -20.1632 225.284C-19.4578 339.082 73.3391 431.166 186.98 431.166C187.411 431.166 187.851 431.166 188.284 431.163C243.619 430.821 295.509 408.949 334.394 369.578C373.281 330.208 394.506 278.051 394.163 222.715C393.458 108.917 300.661 16.8318 187.019 16.8318ZM188.491 425.36C187.983 425.364 187.485 425.366 186.978 425.366C76.6388 425.36 -13.5418 336.013 -14.3598 225.49C-14.7593 171.705 5.8122 120.984 43.5618 82.67C81.3135 44.3564 131.725 23.0377 185.51 22.6392C186.018 22.6352 186.517 22.6332 187.024 22.6332C297.362 22.6332 387.542 111.986 388.361 222.509C389.184 333.539 299.521 424.538 188.491 425.36ZM185.502 21.6429C131.45 22.0424 80.7894 43.4678 42.8525 81.9706C4.91553 120.474 -15.7576 171.446 -15.3561 225.498C-14.9566 279.549 6.46875 330.21 44.9716 368.148C83.1108 405.725 133.477 426.364 186.959 426.362C187.47 426.362 187.987 426.36 188.499 426.356C300.078 425.53 390.183 334.081 389.357 222.501C388.531 110.921 297.103 20.8558 185.502 21.6429ZM188.704 420.554C188.117 420.559 187.537 420.562 186.952 420.562C135.103 420.56 86.2481 400.581 49.2198 364.189C11.774 327.386 -9.09936 278.205 -9.55467 225.703C-10.4942 117.323 76.9158 28.3848 185.296 27.4453C185.879 27.4404 186.446 27.4374 187.026 27.4374C294.615 27.4374 382.62 114.498 383.555 222.296C384.493 330.677 297.084 419.615 188.704 420.554ZM187.026 26.4421C186.45 26.4421 185.866 26.4441 185.288 26.449C76.3579 27.3935 -11.4945 116.782 -10.551 225.712C-10.0937 278.48 10.8853 327.911 48.5214 364.9C85.739 401.479 134.837 421.558 186.952 421.558C187.536 421.558 188.126 421.555 188.712 421.55C297.642 420.606 385.494 331.217 384.551 222.287C383.611 113.936 295.169 26.4421 187.026 26.4421ZM323.941 358.23C288.088 394.809 240.134 415.235 188.916 415.748C188.265 415.755 187.619 415.758 186.97 415.758C82.1245 415.755 -3.69744 330.996 -4.74854 225.916C-5.80461 120.186 79.3538 33.3085 185.084 32.2515C185.735 32.2445 186.38 32.2415 187.029 32.2415C291.875 32.2415 377.697 117.004 378.749 222.083C379.261 273.3 359.796 321.652 323.941 358.23ZM185.074 31.2552C78.7948 32.3172 -6.80589 119.646 -5.74483 225.926C-5.22974 277.41 15.3029 325.612 52.0712 361.653C88.3682 397.231 136.196 416.754 186.946 416.754C187.604 416.754 188.266 416.751 188.926 416.744C240.41 416.229 288.613 395.697 324.654 358.929C360.695 322.16 380.259 273.557 379.745 222.073C378.682 115.794 291.386 30.225 185.074 31.2552ZM189.13 410.942C188.406 410.95 187.69 410.954 186.97 410.954C84.8702 410.95 1.22326 328.485 0.0575943 226.129C-1.11604 123.049 81.7897 38.2312 184.87 37.0576C185.603 37.0486 186.328 37.0446 187.059 37.0446C236.18 37.0446 282.494 55.9105 317.683 90.3056C353.394 125.212 373.372 171.936 373.942 221.87C375.116 324.95 292.21 409.768 189.13 410.942ZM318.379 89.5933C283.001 55.0128 236.446 36.0483 187.059 36.0483C186.328 36.0483 185.592 36.0523 184.859 36.0613C81.2298 37.2419 -2.11831 122.511 -0.938702 226.141C0.23394 329.048 84.3173 411.951 186.969 411.951C187.688 411.951 188.42 411.946 189.141 411.939C292.77 410.758 376.118 325.488 374.939 221.858C374.366 171.658 354.28 124.686 318.379 89.5933ZM317.445 351.133C283.487 385.976 237.993 405.511 189.342 406.135C188.537 406.146 187.739 406.151 186.936 406.151C139.179 406.149 94.1328 387.842 59.8672 354.445C25.0238 320.487 5.48939 274.992 4.86372 226.342C4.23904 177.692 22.5958 131.71 56.5545 96.8662C90.5132 62.0228 136.007 42.4894 184.658 41.8637C185.463 41.8538 186.262 41.8478 187.064 41.8478C234.822 41.8478 279.867 60.1567 314.133 93.5535C348.976 127.512 368.511 173.007 369.135 221.657C369.761 270.307 351.404 316.29 317.445 351.133ZM370.132 221.645C369.504 172.728 349.863 126.984 314.829 92.8402C279.795 58.6961 233.594 40.2348 184.645 40.8674C135.729 41.4961 89.9852 61.1371 55.8412 96.1708C21.6971 131.205 3.23977 177.438 3.86743 226.354C4.49709 275.271 24.1371 321.015 59.1708 355.159C93.6267 388.741 138.914 407.149 186.936 407.148C187.74 407.148 188.549 407.143 189.355 407.132C238.271 406.504 284.015 386.863 318.159 351.829C352.303 316.795 370.76 270.561 370.132 221.645ZM189.555 401.329C188.683 401.342 187.83 401.348 186.963 401.348C90.3598 401.339 11.0667 323.463 9.67085 226.554C8.98739 179.187 26.7912 134.391 59.8024 100.415C92.8127 66.4393 137.079 47.3523 184.445 46.6698C185.317 46.6569 186.17 46.6509 187.037 46.6509C283.639 46.6509 362.933 124.536 364.33 221.445C365.739 319.225 287.335 399.92 189.555 401.329ZM187.038 45.6546C186.171 45.6546 185.301 45.6606 184.431 45.6736C136.798 46.36 92.2847 65.5536 59.0871 99.7206C25.8915 133.888 7.98711 178.936 8.67455 226.569C10.0783 324.027 89.8089 402.344 186.962 402.344C187.829 402.344 188.699 402.338 189.569 402.325C287.898 400.909 366.743 319.759 365.326 221.43C363.922 123.971 284.191 45.6546 187.038 45.6546ZM310.95 344.035C278.887 377.144 235.85 395.785 189.767 396.523C188.817 396.539 187.872 396.546 186.924 396.546C141.896 396.545 99.3893 379.351 66.9648 347.949C33.8559 315.886 15.2152 272.85 14.477 226.767C13.7377 180.684 30.9876 137.072 63.0514 103.964C95.1131 70.8559 138.15 52.2152 184.233 51.476C185.173 51.461 186.105 51.4531 187.041 51.4531C280.901 51.4531 358.013 127.043 359.524 221.232C360.263 267.315 343.012 310.927 310.95 344.035ZM184.217 50.4797C137.868 51.2229 94.5831 69.9712 62.335 103.27C30.0869 136.571 12.7374 180.434 13.4807 226.782C14.2239 273.132 32.9712 316.417 66.2714 348.665C98.8861 380.25 141.632 397.542 186.924 397.542C187.875 397.542 188.83 397.535 189.783 397.519C236.132 396.776 279.418 378.029 311.666 344.729C343.913 311.429 361.264 267.566 360.52 221.217C358.984 125.538 279.858 48.9474 184.217 50.4797ZM307.702 340.486C276.587 372.726 234.779 390.921 189.98 391.717C188.97 391.735 187.963 391.744 186.956 391.744C95.8375 391.743 20.9081 318.449 19.2821 226.979C17.6402 134.5 91.5414 57.925 184.021 56.2821C185.031 56.2642 186.038 56.2552 187.044 56.2552C278.163 56.2552 353.092 129.55 354.718 221.02C355.514 265.818 338.817 308.246 307.702 340.486ZM184.003 55.2858C90.9735 56.9387 16.634 133.968 18.2858 226.997C19.9217 319.015 95.2875 392.74 186.956 392.74C187.963 392.74 188.987 392.73 189.998 392.713C235.063 391.912 277.118 373.61 308.419 341.178C339.719 308.746 356.514 266.067 355.714 221.002C354.061 127.973 277.012 53.627 184.003 55.2858ZM304.454 336.938C274.286 368.311 233.708 386.058 190.193 386.911C146.637 387.758 105.435 371.619 74.0624 341.453C42.6891 311.286 24.9411 270.708 24.0882 227.193C23.2354 183.677 39.3794 142.434 69.5462 111.061C99.7141 79.6881 140.292 61.9411 183.807 61.0882C184.902 61.0663 185.994 61.0564 187.085 61.0564C229.39 61.0564 269.354 77.1376 299.938 106.546C331.311 136.713 349.059 177.292 349.912 220.806C350.765 264.323 334.621 305.565 304.454 336.938ZM183.787 60.0919C140.006 60.9498 99.18 78.8064 68.8289 110.371C38.4777 141.936 22.2341 183.43 23.0919 227.212C23.9508 270.993 41.8074 311.819 73.371 342.17C104.145 371.761 144.347 387.939 186.914 387.939C188.01 387.939 189.114 387.928 190.213 387.907C233.994 387.048 274.82 369.193 305.171 337.629C335.522 306.063 351.766 264.569 350.908 220.787C349.136 130.408 274.157 58.2956 183.787 60.0919ZM301.205 333.389C271.986 363.894 232.637 381.195 190.405 382.105C148.17 383.032 108.116 367.423 77.6102 338.205C47.1057 308.986 29.805 269.636 28.8954 227.405C27.9857 185.173 43.5758 145.116 72.7951 114.61C102.013 84.1047 141.363 66.804 183.595 65.8944C184.763 65.8695 185.926 65.8565 187.09 65.8565C228.032 65.8565 266.727 81.3838 296.39 109.794C326.894 139.014 344.195 178.362 345.105 220.594C346.014 262.826 330.424 302.884 301.205 333.389ZM297.078 109.075C266.382 79.6721 226.091 63.9835 183.574 64.8981C141.076 65.8137 101.479 83.2239 72.0748 113.921C42.6731 144.619 26.9835 184.929 27.8991 227.426C28.8147 269.924 46.2239 309.522 76.9218 338.925C106.773 367.517 145.708 383.139 186.909 383.139C188.079 383.139 189.254 383.127 190.426 383.101C232.924 382.185 272.522 364.776 301.925 334.078C331.327 303.381 347.017 263.07 346.101 220.573C345.185 178.075 327.776 138.477 297.078 109.075ZM297.957 329.84C269.686 359.478 231.565 376.332 190.618 377.298C189.39 377.327 188.171 377.342 186.949 377.342C104.064 377.338 35.6662 310.918 33.7015 227.617C31.7069 143.088 98.8532 72.6951 183.382 70.7005C267.878 68.692 338.305 135.852 340.298 220.382C341.266 261.33 326.228 300.202 297.957 329.84ZM183.359 69.7042C98.2804 71.7117 30.6977 142.562 32.7052 227.641C34.6838 311.488 103.518 378.339 186.949 378.339C188.174 378.339 189.411 378.324 190.641 378.295C231.855 377.322 270.223 360.358 298.678 330.528C327.132 300.697 342.268 261.572 341.295 220.358C339.286 135.279 268.428 67.7435 183.359 69.7042ZM294.708 326.292C267.386 355.062 230.494 371.47 190.83 372.492C151.148 373.523 113.478 359.03 84.7079 331.707C55.9378 304.385 39.5298 267.493 38.5076 227.829C37.4844 188.166 51.9686 150.478 79.292 121.708C106.614 92.9378 143.506 76.5298 183.17 75.5066C184.47 75.4728 185.762 75.4568 187.054 75.4568C267.197 75.4568 333.414 139.589 335.493 220.17C336.516 259.833 322.031 297.522 294.708 326.292ZM183.145 74.5103C143.214 75.5405 106.075 92.0581 78.5687 121.021C51.0629 149.984 36.4812 187.925 37.5113 227.855C38.5415 267.785 55.0591 304.924 84.0224 332.43C112.028 359.028 148.423 373.54 186.9 373.54C188.214 373.54 189.537 373.523 190.855 373.489C230.786 372.459 267.925 355.941 295.431 326.978C322.937 298.015 337.519 260.073 336.49 220.144C334.364 137.715 265.569 72.3783 183.145 74.5103ZM291.461 322.742C265.085 350.646 229.423 366.607 191.043 367.686C152.655 368.761 116.159 354.835 88.2567 328.46C60.3544 302.085 44.3927 266.423 43.3128 228.041C41.084 148.813 103.729 82.5415 182.957 80.3128C184.33 80.2739 185.69 80.255 187.055 80.255C264.455 80.255 328.496 142.101 330.687 219.958C331.767 258.337 317.835 294.84 291.461 322.742ZM182.93 79.3165C103.151 81.5611 40.0728 148.292 42.3165 228.069C44.5233 306.47 109.002 368.74 186.944 368.74C188.314 368.74 189.692 368.721 191.07 368.683C229.717 367.596 265.626 351.523 292.184 323.428C318.742 295.332 332.769 258.576 331.684 219.93C329.438 140.151 262.677 77.0917 182.93 79.3165ZM288.212 319.195C262.784 346.23 228.351 361.744 191.254 362.879C154.178 364.019 118.84 350.639 91.8045 325.211C64.77 299.784 49.2557 265.351 48.1199 228.254C46.9831 191.158 60.3604 155.839 85.7878 128.804C111.216 101.77 145.649 86.2557 182.745 85.1189C259.287 82.7816 323.534 143.166 325.88 219.744C327.017 256.841 313.64 292.16 288.212 319.195ZM182.714 84.1226C145.352 85.2673 110.672 100.893 85.0625 128.122C59.4527 155.351 45.9788 190.922 47.1236 228.285C48.2683 265.647 63.8942 300.327 91.123 325.936C117.282 350.542 151.139 363.943 186.891 363.943C188.35 363.943 189.819 363.92 191.286 363.875C228.648 362.732 263.328 347.106 288.937 319.877C314.547 292.648 328.021 257.077 326.876 219.714C324.513 142.586 259.869 81.7683 182.714 84.1226ZM284.963 315.646C260.484 341.813 227.28 356.881 191.467 358.074C155.653 359.279 121.52 346.442 95.3543 321.963C69.1866 297.483 54.1186 264.279 52.926 228.466C51.7315 192.654 64.5578 158.52 89.0368 132.353C113.517 106.187 146.721 91.1176 182.534 89.925C184.064 89.8742 185.59 89.8483 187.113 89.8483C221.247 89.8483 253.598 102.602 278.647 126.036C304.813 150.516 319.881 183.72 321.074 219.533C322.268 255.345 309.443 289.479 284.963 315.646ZM182.5 88.9297C146.421 90.1313 112.971 105.311 88.3085 131.673C63.6472 158.034 50.7282 192.421 51.9297 228.5C54.3597 301.454 114.481 359.146 186.941 359.146C188.453 359.146 189.977 359.121 191.501 359.07C265.978 356.588 324.551 293.977 322.07 219.499C319.59 145.022 256.987 86.425 182.5 88.9297ZM281.715 312.098C258.183 337.397 226.208 352.019 191.678 353.268C190.091 353.326 188.516 353.355 186.939 353.355C117.759 353.351 60.2538 298.369 57.7321 228.678C55.1517 157.399 111.043 97.3106 182.322 94.7301C253.595 92.1438 313.688 148.042 316.268 219.321C317.518 253.85 305.247 286.798 281.715 312.098ZM187.061 93.6492C185.477 93.6492 183.881 93.6771 182.285 93.7348C110.458 96.3352 54.1365 156.887 56.7358 228.714C59.2784 298.947 117.22 354.351 186.939 354.351C188.523 354.351 190.119 354.322 191.715 354.264C226.51 353.004 258.732 338.271 282.445 312.775C306.158 287.282 318.523 254.079 317.264 219.285C314.722 149.052 256.78 93.6492 187.061 93.6492ZM278.467 308.549C255.882 332.981 225.136 347.156 191.89 348.462C190.215 348.527 188.549 348.56 186.88 348.56C155.468 348.558 125.651 336.912 102.451 315.466C78.0187 292.882 63.8444 262.136 62.5383 228.89C61.2321 195.645 72.9486 163.881 95.5336 139.45C118.118 115.018 148.864 100.843 182.11 99.5373C183.769 99.4715 185.416 99.4396 187.062 99.4396C253.506 99.4396 308.831 152.139 311.463 219.109C312.769 252.354 301.051 284.118 278.467 308.549ZM182.071 98.542C148.559 99.8581 117.567 114.146 94.8023 138.773C72.037 163.4 60.2259 195.418 61.542 228.929C62.8591 262.441 77.147 293.432 101.774 316.198C125.161 337.815 155.213 349.557 186.879 349.557C188.558 349.557 190.242 349.524 191.929 349.458C225.441 348.141 256.433 333.853 279.198 309.226C301.963 284.598 313.775 252.58 312.459 219.07C309.739 149.893 251.281 95.8281 182.071 98.542ZM192.103 343.656C190.371 343.729 188.653 343.766 186.937 343.766C123.23 343.762 70.0832 293.35 67.3434 229.103C64.5299 163.124 115.919 107.157 181.897 104.343C247.873 101.537 303.842 152.918 306.657 218.896C309.47 284.876 258.081 340.842 192.103 343.656ZM181.855 103.348C115.328 106.186 63.5117 162.618 66.3471 229.145C69.1108 293.931 122.695 344.763 186.937 344.763C188.663 344.763 190.403 344.726 192.145 344.652C258.672 341.814 310.488 285.382 307.653 218.854C304.815 152.327 248.38 100.513 181.855 103.348ZM271.97 301.454C251.28 324.149 222.992 337.431 192.314 338.849C161.635 340.259 132.242 329.657 109.546 308.969C86.8509 288.28 73.5693 259.991 72.1495 229.314C69.2194 165.985 118.359 112.08 181.686 109.15C245.008 106.225 298.919 155.357 301.85 218.685C303.27 249.363 292.659 278.758 271.97 301.454ZM181.639 108.154C117.763 111.109 68.1992 165.483 71.1552 229.36C72.5859 260.303 85.9821 288.836 108.875 309.705C130.411 329.336 157.925 339.971 186.872 339.971C188.695 339.971 190.526 339.929 192.361 339.844C223.304 338.413 251.837 325.018 272.706 302.124C293.574 279.231 304.277 249.583 302.845 218.639C299.89 154.762 245.539 105.207 181.639 108.154ZM192.526 334.044C190.652 334.138 188.794 334.185 186.937 334.185C128.698 334.181 79.9087 288.329 76.9557 229.525C73.909 168.847 120.796 117.002 181.474 113.956C242.165 110.895 293.998 157.796 297.044 218.474C300.091 279.152 253.204 330.997 192.526 334.044ZM181.423 112.96C120.197 116.035 72.8868 168.348 75.9614 229.575C78.9403 288.914 128.166 335.181 186.937 335.181C188.806 335.181 190.689 335.134 192.577 335.039C253.803 331.964 301.113 279.651 298.039 218.424C294.964 157.197 242.673 109.874 181.423 112.96ZM265.472 294.357C246.678 315.318 220.848 327.706 192.737 329.238C164.641 330.771 137.602 321.265 116.642 302.472C95.682 283.678 83.2941 257.847 81.7618 229.736C78.5986 171.709 123.235 121.925 181.263 118.761C239.271 115.612 289.074 160.234 292.238 218.263C293.77 246.372 284.265 273.397 265.472 294.357ZM181.208 117.766C122.632 120.961 77.5744 171.215 80.7675 229.791C82.3148 258.166 94.8193 284.243 115.978 303.213C135.659 320.86 160.636 330.395 186.867 330.394C188.835 330.394 190.811 330.34 192.791 330.233C221.167 328.685 247.242 316.181 266.213 295.022C285.184 273.864 294.78 246.584 293.232 218.208C290.039 159.632 239.793 114.561 181.208 117.766ZM192.949 324.432C190.931 324.552 188.931 324.609 186.937 324.609C134.16 324.604 89.7282 283.308 86.5679 229.947C84.9798 203.121 93.9325 177.282 111.778 157.189C129.623 137.097 154.225 125.157 181.052 123.567C236.434 120.297 284.152 162.674 287.433 218.052C290.713 273.43 248.327 321.152 192.949 324.432ZM180.994 122.573C153.901 124.178 129.055 136.237 111.033 156.527C93.01 176.82 83.9686 202.915 85.5736 230.007C88.7648 283.899 133.633 325.606 186.936 325.606C188.947 325.606 190.973 325.547 193.007 325.426C248.934 322.114 291.739 273.919 288.427 217.992C285.114 162.065 236.895 119.258 180.994 122.573ZM258.973 287.262C242.075 306.487 218.702 317.98 193.16 319.625C191.07 319.759 189 319.826 186.936 319.826C136.886 319.823 94.6359 280.799 91.3741 230.159C87.9777 177.431 128.113 131.769 180.84 128.374C233.575 124.966 279.23 165.112 282.626 217.84C284.272 243.383 275.871 268.038 258.973 287.262ZM180.777 127.379C127.5 130.811 86.9485 176.946 90.3788 230.223C93.6755 281.392 136.362 320.822 186.935 320.822C189.017 320.822 191.116 320.755 193.223 320.619C219.031 318.958 242.648 307.345 259.721 287.92C276.796 268.495 285.282 243.585 283.62 217.776C280.189 164.501 234.088 123.947 180.777 127.379ZM255.724 283.714C239.773 302.071 217.629 313.118 193.37 314.819C143.293 318.347 99.6931 280.448 96.1802 230.37C92.6672 180.291 130.552 136.691 180.63 133.179C182.788 133.028 184.932 132.953 187.063 132.953C234.389 132.953 274.458 169.709 277.82 217.629C279.521 241.889 271.675 265.358 255.724 283.714ZM180.56 132.185C129.935 135.736 91.6351 179.813 95.1859 230.44C98.5842 278.887 139.087 316.046 186.936 316.041C189.087 316.041 191.261 315.967 193.44 315.813C217.963 314.094 240.351 302.926 256.475 284.369C272.601 265.811 280.535 242.084 278.814 217.559C275.263 166.934 231.194 128.637 180.56 132.185ZM193.58 310.014C146.13 313.652 104.615 278.007 100.985 230.58C99.2279 207.604 106.523 185.32 121.526 167.831C136.529 150.342 157.444 139.743 180.419 137.985C227.852 134.351 269.385 169.991 273.015 217.419C276.643 264.848 241.009 306.385 193.58 310.014ZM180.343 136.992C157.103 138.769 135.946 149.492 120.769 167.183C105.593 184.874 98.2146 207.415 99.992 230.656C103.491 276.38 141.816 311.267 186.939 311.265C189.161 311.265 191.405 311.18 193.657 311.008C241.632 307.337 277.678 265.32 274.008 217.343C270.338 169.367 228.313 133.33 180.343 136.992ZM249.224 276.621C235.168 293.242 215.482 303.394 193.789 305.209C172.107 307.018 150.999 300.28 134.379 286.224C117.758 272.168 107.606 252.482 105.791 230.789C103.978 209.098 110.72 187.998 124.776 171.378C138.832 154.757 158.518 144.605 180.211 142.791C201.893 140.98 223.001 147.72 239.621 161.775C256.242 175.831 266.394 195.518 268.209 217.21C270.022 238.901 263.28 260.001 249.224 276.621ZM240.264 161.015C223.441 146.787 202.082 139.96 180.127 141.799C158.17 143.634 138.243 153.91 124.015 170.735C109.788 187.558 102.963 208.916 104.799 230.872C106.635 252.829 116.911 272.757 133.736 286.985C148.762 299.693 167.404 306.495 186.861 306.495C189.188 306.495 191.528 306.397 193.873 306.201C215.829 304.365 235.757 294.089 249.985 277.264C264.212 260.441 271.037 239.083 269.201 217.127C267.365 195.17 257.089 175.242 240.264 161.015ZM245.974 273.075C232.866 288.827 214.409 298.533 193.999 300.402C173.59 302.272 153.677 296.082 137.925 282.973C122.173 269.865 112.467 251.407 110.598 230.999C106.738 188.87 137.871 151.456 180.001 147.597C222.116 143.73 259.543 174.871 263.402 217C265.272 237.408 259.083 257.323 245.974 273.075ZM179.909 146.604C137.235 150.515 105.697 188.415 109.605 231.09C111.5 251.763 121.331 270.461 137.288 283.739C151.379 295.465 168.756 301.725 186.863 301.725C189.261 301.725 191.673 301.615 194.091 301.395C214.763 299.5 233.462 289.669 246.74 273.712C260.019 257.755 266.289 237.582 264.396 216.909C260.484 174.234 222.594 142.701 179.909 146.604ZM242.724 269.528C230.564 284.414 213.334 293.671 194.209 295.596C154.726 299.566 119.378 270.687 115.403 231.208C113.477 212.084 119.114 193.354 131.276 178.471C143.436 163.586 160.666 154.329 179.791 152.403C219.278 148.426 254.621 177.313 258.597 216.791C260.522 235.915 254.886 254.645 242.724 269.528ZM179.692 151.411C160.303 153.364 142.834 162.749 130.505 177.84C118.174 192.93 112.46 211.918 114.412 231.308C118.192 268.861 149.977 296.958 186.946 296.957C189.38 296.957 191.836 296.836 194.308 296.587C213.697 294.635 231.166 285.25 243.495 270.159C255.826 255.069 261.54 236.08 259.588 216.691C255.558 176.666 219.728 147.375 179.692 151.411ZM194.417 290.79C157.594 294.881 124.3 268.245 120.209 231.417C116.119 194.588 142.755 161.298 179.584 157.208C182.092 156.93 184.582 156.793 187.05 156.793C220.811 156.793 249.979 182.262 253.791 216.582C257.881 253.411 231.246 286.701 194.417 290.79ZM179.472 156.218C142.099 160.368 115.069 194.152 119.219 231.527C123.087 266.358 152.686 292.205 186.949 292.201C189.451 292.201 191.984 292.062 194.529 291.78C231.902 287.631 258.931 253.848 254.781 216.473C250.632 179.098 216.873 152.075 179.472 156.218ZM194.624 285.986C192.046 286.303 189.49 286.456 186.956 286.456C155.893 286.454 128.903 263.225 125.014 231.624C122.978 215.068 127.511 198.709 137.779 185.56C148.045 172.413 162.818 164.05 179.376 162.014C213.552 157.811 244.781 182.196 248.986 216.375C253.19 250.554 228.804 281.781 194.624 285.986ZM179.253 161.025C162.433 163.094 147.424 171.589 136.993 184.948C126.561 198.305 121.956 214.925 124.026 231.746C127.975 263.852 155.395 287.453 186.955 287.453C189.528 287.453 192.128 287.296 194.747 286.974C229.472 282.703 254.246 250.977 249.974 216.253C245.703 181.529 213.987 156.753 179.253 161.025ZM232.971 258.895C223.649 271.174 210.105 279.089 194.831 281.181C179.554 283.272 164.385 279.291 152.105 269.971C139.826 260.649 131.911 247.105 129.819 231.831C127.728 216.557 131.709 201.384 141.029 189.104C150.351 176.825 163.895 168.911 179.169 166.819C181.828 166.455 184.483 166.275 187.12 166.275C199.637 166.275 211.753 170.331 221.895 178.029C234.174 187.35 242.089 200.894 244.181 216.168C246.272 231.442 242.291 246.615 232.971 258.895ZM222.497 177.235C210.006 167.754 194.57 163.705 179.034 165.832C163.496 167.96 149.718 176.011 140.235 188.502C130.755 200.993 126.705 216.429 128.833 231.967C130.961 247.503 139.012 261.282 151.502 270.764C161.821 278.595 174.145 282.721 186.878 282.72C189.56 282.72 192.263 282.538 194.966 282.167C210.504 280.039 224.283 271.988 233.764 259.496C243.245 247.006 247.295 231.57 245.167 216.032C243.039 200.496 234.988 186.717 222.497 177.235ZM229.719 255.351C221.344 266.762 209.027 274.229 195.037 276.375C181.049 278.519 167.058 275.092 155.648 266.718C144.237 258.344 136.772 246.027 134.625 232.037C132.478 218.047 135.908 204.058 144.282 192.648C152.656 181.237 164.973 173.77 178.963 171.624C181.675 171.208 184.367 171.007 187.031 171.007C212.729 171.007 235.36 189.795 239.376 215.962C241.523 229.952 238.092 243.941 229.719 255.351ZM178.811 170.639C149.389 175.154 129.125 202.764 133.64 232.188C137.732 258.849 160.784 277.989 186.968 277.989C189.68 277.989 192.426 277.784 195.189 277.36C224.612 272.845 244.876 245.234 240.361 215.811C235.844 186.388 208.238 166.129 178.811 170.639ZM226.465 251.81C219.036 262.352 207.948 269.369 195.241 271.571C182.533 273.771 169.732 270.892 159.19 263.464C148.649 256.035 141.631 244.947 139.429 232.24C137.229 219.534 140.107 206.731 147.535 196.189C154.964 185.647 166.052 178.63 178.759 176.428C181.537 175.948 184.297 175.716 187.024 175.716C210.058 175.716 230.508 192.305 234.572 215.759C236.772 228.465 233.893 241.268 226.465 251.81ZM178.59 175.447C165.62 177.694 154.303 184.856 146.72 195.615C139.139 206.375 136.201 219.441 138.449 232.41C140.695 245.379 147.857 256.697 158.616 264.279C167.018 270.2 176.825 273.288 186.895 273.287C189.72 273.287 192.57 273.044 195.41 272.552C208.38 270.305 219.697 263.143 227.28 252.384C234.862 241.625 237.8 228.558 235.552 215.589C230.914 188.817 205.361 170.81 178.59 175.447ZM195.444 266.766C192.604 267.327 189.776 267.596 186.986 267.596C166.598 267.594 148.329 253.184 144.233 232.443C139.578 208.861 154.975 185.888 178.556 181.233C202.148 176.576 225.111 191.976 229.767 215.556C234.422 239.138 219.025 262.111 195.444 266.766ZM178.364 180.255C154.243 185.017 138.494 208.515 143.256 232.635C147.445 253.852 166.131 268.593 186.985 268.593C189.839 268.593 192.733 268.317 195.636 267.744C219.757 262.982 235.506 239.484 230.744 215.364C225.983 191.243 202.482 175.496 178.364 180.255ZM219.956 244.732C214.418 253.536 205.784 259.655 195.642 261.963C174.716 266.728 153.803 253.576 149.036 232.642C146.727 222.502 148.506 212.069 154.045 203.267C159.582 194.463 168.216 188.344 178.358 186.036C181.255 185.376 184.15 185.06 187.004 185.06C204.767 185.06 220.857 197.322 224.963 215.357C227.273 225.497 225.494 235.93 219.956 244.732ZM178.136 185.064C167.736 187.431 158.881 193.708 153.201 202.736C147.521 211.764 145.697 222.463 148.065 232.863C152.276 251.361 168.777 263.935 186.996 263.935C189.922 263.935 192.894 263.611 195.864 262.935C206.264 260.568 215.12 254.291 220.8 245.263C226.479 236.235 228.303 225.536 225.935 215.136C221.048 193.667 199.604 180.175 178.136 185.064ZM216.699 241.199C212.104 249.132 204.697 254.801 195.839 257.161C177.546 262.036 158.712 251.122 153.839 232.838C151.478 223.98 152.707 214.733 157.301 206.8C161.896 198.867 169.303 193.198 178.162 190.838C187.019 188.478 196.266 189.707 204.2 194.301C212.132 198.895 217.801 206.303 220.161 215.161C222.522 224.019 221.293 233.266 216.699 241.199ZM204.699 193.439C196.536 188.711 187.019 187.444 177.905 189.875C168.79 192.304 161.167 198.138 156.439 206.3C151.712 214.464 150.446 223.979 152.875 233.095C157.083 248.876 171.398 259.32 187.008 259.319C190.009 259.319 193.061 258.933 196.096 258.124C205.21 255.695 212.833 249.861 217.561 241.699C222.288 233.535 223.554 224.019 221.125 214.904C218.695 205.789 212.861 198.166 204.699 193.439ZM213.44 237.671C209.788 244.732 203.605 249.95 196.029 252.362C188.454 254.774 180.392 254.092 173.329 250.439C166.267 246.788 161.05 240.604 158.638 233.028C156.226 225.452 156.909 217.391 160.561 210.328C164.212 203.267 170.395 198.049 177.97 195.637C180.963 194.684 183.995 194.232 186.98 194.232C199.596 194.232 211.336 202.324 215.362 214.97C217.774 222.546 217.092 230.608 213.44 237.671ZM201.128 196.675C193.829 192.9 185.496 192.196 177.669 194.687C169.839 197.18 163.449 202.572 159.675 209.871C155.902 217.17 155.196 225.501 157.688 233.331C160.181 241.161 165.573 247.551 172.872 251.324C177.305 253.616 182.116 254.776 186.966 254.776C190.102 254.776 193.256 254.29 196.331 253.311C204.161 250.819 210.551 245.427 214.325 238.128C218.099 230.829 218.804 222.497 216.311 214.668C213.819 206.838 208.427 200.448 201.128 196.675ZM196.212 247.566C189.918 250.027 183.042 249.889 176.849 247.178C170.659 244.466 165.894 239.507 163.434 233.212C160.972 226.917 161.111 220.04 163.822 213.849C166.533 207.658 171.493 202.893 177.788 200.433C190.78 195.352 205.488 201.792 210.567 214.787C215.647 227.782 209.207 242.487 196.212 247.566ZM177.426 199.505C170.882 202.062 165.727 207.015 162.909 213.45C160.091 219.885 159.948 227.031 162.506 233.575C165.063 240.118 170.016 245.272 176.451 248.091C179.832 249.571 183.409 250.314 186.993 250.314C190.229 250.314 193.469 249.708 196.574 248.494C203.118 245.937 208.273 240.984 211.091 234.549C213.909 228.114 214.052 220.968 211.495 214.424C206.214 200.917 190.929 194.225 177.426 199.505ZM196.385 242.779C186.03 247.952 173.396 243.738 168.22 233.384C163.047 223.029 167.261 210.395 177.615 205.22C180.62 203.72 183.815 203.009 186.966 203.009C194.673 203.009 202.105 207.265 205.78 214.615C210.953 224.97 206.739 237.604 196.385 242.779ZM177.17 204.33C166.324 209.749 161.91 222.983 167.33 233.83C171.177 241.529 178.962 245.987 187.035 245.987C190.335 245.987 193.684 245.242 196.83 243.669C202.084 241.044 206.001 236.53 207.859 230.958C209.719 225.386 209.296 219.424 206.67 214.169C201.251 203.324 188.016 198.909 177.17 204.33ZM203.651 227.158C202.807 231.605 200.281 235.458 196.54 238.006C192.798 240.555 188.288 241.494 183.842 240.65C179.394 239.806 175.541 237.281 172.993 233.54C167.733 225.816 169.737 215.253 177.46 209.993C180.305 208.055 183.595 207.048 186.965 207.048C188.025 207.048 189.094 207.147 190.158 207.349C194.606 208.193 198.459 210.718 201.007 214.459C203.555 218.201 204.494 222.71 203.651 227.158ZM190.343 206.37C185.634 205.479 180.859 206.471 176.899 209.17C168.721 214.739 166.599 225.922 172.17 234.1C174.868 238.062 178.947 240.735 183.657 241.629C184.784 241.842 185.915 241.949 187.037 241.949C190.605 241.948 194.088 240.882 197.101 238.829C201.062 236.131 203.736 232.053 204.629 227.343C205.523 222.635 204.528 217.859 201.83 213.899C199.132 209.937 195.053 207.264 190.343 206.37ZM196.675 233.267C191.566 238.601 183.067 238.784 177.732 233.674C175.148 231.199 173.683 227.865 173.606 224.287C173.529 220.71 174.851 217.315 177.325 214.732C182.434 209.398 190.933 209.214 196.268 214.325C198.851 216.8 200.317 220.134 200.394 223.712C200.47 227.289 199.149 230.683 196.675 233.267ZM176.605 214.043C173.946 216.818 172.527 220.465 172.61 224.308C172.693 228.152 174.267 231.734 177.044 234.393C179.828 237.061 183.414 238.386 186.998 238.386C190.786 238.386 194.572 236.903 197.395 233.956C200.054 231.181 201.473 227.534 201.39 223.691C201.307 219.847 199.733 216.265 196.956 213.606C191.228 208.118 182.099 208.311 176.605 214.043Z" fill="url(#paint0_radial_1096_56663)"/>
</g>
<defs>
<radialGradient id="paint0_radial_1096_56663" cx="0" cy="0" r="1" gradientUnits="userSpaceOnUse" gradientTransform="translate(187 224) rotate(90) scale(207.598)">
<stop stop-color="#F8FE11" stop-opacity="0.01"/>
<stop offset="0.237022" stop-color="#F8FE11" stop-opacity="0.3"/>
<stop offset="0.432108" stop-color="#F8FE11"/>
<stop offset="0.784862" stop-color="#F8FE11" stop-opacity="0.169213"/>
<stop offset="1" stop-color="#F8FE11" stop-opacity="0"/>
</radialGradient>
</defs>
</svg>
