<svg width="375" height="472" viewBox="0 0 375 472" fill="none" xmlns="http://www.w3.org/2000/svg">
<path fill-rule="evenodd" clip-rule="evenodd" d="M353.173 402.173C308.786 446.56 249.772 471.004 187 471.004C124.229 471.004 65.2143 446.56 20.8274 402.173C-23.5596 357.786 -48.0037 298.771 -48.0037 235.999C-48.0037 173.228 -23.5596 114.213 20.8274 69.8264C65.2143 25.4404 124.229 0.996296 187 0.996296C249.772 0.996296 308.786 25.4404 353.173 69.8264C397.56 114.213 422.004 173.228 422.004 235.999C422.004 298.771 397.56 357.786 353.173 402.173M353.877 69.122C309.303 24.5477 250.037 0 187.001 0C123.963 0 64.6972 24.5477 20.123 69.122C-24.4513 113.697 -49 172.962 -49 236C-49 299.037 -24.4513 358.303 20.123 402.877C64.6972 447.451 123.963 472 187.001 472C250.037 472 309.303 447.451 353.877 402.877C398.451 358.303 423 299.037 423 236C423 172.962 398.451 113.697 353.877 69.122M349.925 398.623C306.487 442.142 248.702 466.141 187.214 466.198H186.994C125.59 466.196 67.8416 442.309 24.3762 398.924C-19.142 355.486 -43.1408 297.701 -43.1976 236.213C-43.2534 174.724 -19.3632 116.894 24.0753 73.3752C67.5128 29.857 125.299 5.85822 186.787 5.80143H187.006C248.41 5.80143 306.158 29.6896 349.623 73.0743C393.142 116.513 417.141 174.298 417.198 235.786C417.254 297.275 393.363 355.105 349.925 398.623M350.328 72.3699C306.671 28.7939 248.68 4.80513 187.006 4.80513H186.786C125.032 4.86292 66.9967 28.9643 23.3699 72.6718C-20.2559 116.379 -44.2507 174.459 -44.1939 236.214C-44.1361 297.967 -20.0347 356.003 23.6718 399.629C67.3295 443.206 125.32 467.194 186.995 467.194H187.214C248.968 467.136 307.003 443.035 350.63 399.327C394.256 355.62 418.251 297.54 418.194 235.785C418.136 174.031 394.035 115.996 350.328 72.3699M346.677 395.074C304.187 437.726 247.63 461.277 187.426 461.39H186.988C126.949 461.39 70.4728 438.062 27.926 395.676C-14.7264 353.186 -38.2769 296.629 -38.3914 236.426C-38.505 176.221 -15.1678 119.576 27.3222 76.925C69.8132 34.2736 126.37 10.7221 186.574 10.6076C186.722 10.6076 186.866 10.6076 187.013 10.6076C247.052 10.6076 303.527 33.9358 346.075 76.3222C388.726 118.812 412.278 175.369 412.391 235.573C412.506 295.778 389.168 352.423 346.677 395.074M346.777 75.6158C304.04 33.0401 247.322 9.61126 187.013 9.61126C186.869 9.61126 186.717 9.61126 186.572 9.61126C126.102 9.72584 69.2951 33.3819 26.6168 76.2216C-16.0605 119.061 -39.5023 175.957 -39.3877 236.428C-39.2732 296.898 -15.6171 353.705 27.2226 396.382C69.9597 438.959 126.679 462.39 186.988 462.387H187.428C247.898 462.273 304.705 438.617 347.382 395.777C390.06 352.938 413.502 296.042 413.388 235.571C413.273 175.101 389.617 118.294 346.777 75.6158M343.43 391.524C301.886 433.309 246.559 456.414 187.64 456.584C187.416 456.585 187.204 456.585 186.981 456.585C128.31 456.582 73.101 433.814 31.4738 392.429C-10.3089 350.886 -33.414 295.559 -33.5853 236.639C-33.7557 177.718 -10.9714 122.257 30.5701 80.4738C72.1137 38.6911 127.441 15.5851 186.361 15.4147C186.584 15.4137 186.796 15.4137 187.019 15.4137C245.69 15.4137 300.9 38.185 342.525 79.5701C384.309 121.113 407.414 176.44 407.585 235.36C407.756 294.281 384.971 349.742 343.43 391.524M343.229 78.8638C301.409 37.2864 245.963 14.4174 187.019 14.4174C186.802 14.4174 186.574 14.4174 186.357 14.4184H186.358C127.171 14.5898 71.5946 37.7995 29.8638 79.7714C-11.8661 121.744 -34.753 177.455 -34.5816 236.642C-34.4102 295.828 -11.2005 351.405 30.7714 393.136C72.5909 434.713 128.037 457.585 186.981 457.582C187.198 457.582 187.426 457.582 187.642 457.581C246.829 457.409 302.405 434.2 344.136 392.228C385.865 350.256 408.753 294.545 408.582 235.357C408.41 176.171 385.2 120.594 343.229 78.8638M340.181 387.975C299.587 428.892 245.488 451.551 187.851 451.778C187.556 451.779 187.27 451.78 186.976 451.78C129.669 451.777 75.7292 429.567 35.0236 389.181C-5.89228 348.587 -28.552 294.488 -28.7792 236.851C-29.0073 179.215 -6.776 124.939 33.8191 84.0226C74.4131 43.1067 128.512 20.448 186.148 20.2198C186.44 20.2188 186.732 20.2178 187.023 20.2178C244.334 20.2178 298.268 42.4292 338.976 82.8181C379.892 123.413 402.552 177.511 402.779 235.148C403.007 292.784 380.776 347.06 340.181 387.975M339.678 82.1107C298.574 41.3283 244.065 19.0332 186.145 19.2235C128.241 19.4527 73.894 42.216 33.1117 83.3212C-7.67067 124.426 -30.0046 178.953 -29.7755 236.855C-29.5473 294.759 -6.78297 349.106 34.3222 389.888C75.2191 430.463 129.401 452.776 186.976 452.776C187.268 452.776 187.562 452.775 187.855 452.774C245.759 452.546 300.106 429.783 340.888 388.678C381.671 347.572 404.005 293.046 403.775 235.144C403.547 177.241 380.783 122.893 339.678 82.1107M336.933 384.427C297.287 424.476 244.418 446.689 188.065 446.973C187.703 446.975 187.345 446.976 186.983 446.976C71.1473 446.974 -23.3872 353.033 -23.9731 237.065C-24.5609 120.734 69.604 25.6138 185.935 25.0269C186.297 25.025 186.655 25.024 187.017 25.024C302.854 25.024 397.387 118.966 397.973 234.934C398.257 291.288 376.58 344.379 336.933 384.427M336.128 85.3576C296.151 45.7818 243.24 24.0277 187.029 24.0277C186.664 24.0277 186.296 24.0287 185.929 24.0306C69.0491 24.6205 -25.5592 120.189 -24.9694 237.07C-24.3805 353.593 70.5893 447.972 186.983 447.972C187.339 447.972 187.714 447.971 188.071 447.969C304.951 447.38 399.559 351.81 398.969 234.929C398.683 178.311 376.365 125.192 336.128 85.3576M333.685 380.878C294.988 420.059 243.347 441.825 188.278 442.167C187.841 442.17 187.416 442.17 186.98 442.17C73.8951 442.164 -18.4655 350.521 -19.1669 237.278C-19.8713 123.596 72.0409 30.5375 185.722 29.8321C186.159 29.8291 186.584 29.8281 187.019 29.8281C300.105 29.8281 392.465 121.478 393.167 234.721C393.508 289.79 372.384 341.697 333.685 380.878M187.019 28.8318C186.589 28.8318 186.148 28.8338 185.716 28.8358C71.487 29.5441 -20.8716 123.053 -20.1632 237.284C-19.4578 351.082 73.3391 443.166 186.98 443.166C187.411 443.166 187.851 443.166 188.284 443.163C243.619 442.821 295.509 420.949 334.394 381.578C373.281 342.208 394.506 290.051 394.163 234.715C393.458 120.917 300.661 28.8318 187.019 28.8318M188.491 437.36C187.983 437.364 187.485 437.366 186.978 437.366C76.6388 437.36 -13.5418 348.013 -14.3598 237.49C-14.7593 183.705 5.8122 132.984 43.5618 94.67C81.3135 56.3565 131.725 35.0377 185.51 34.6392C186.018 34.6352 186.517 34.6332 187.024 34.6332C297.362 34.6332 387.542 123.986 388.361 234.509C389.184 345.539 299.521 436.538 188.491 437.36M185.502 33.6429C131.45 34.0424 80.7894 55.4678 42.8525 93.9706C4.91553 132.474 -15.7576 183.446 -15.3561 237.498C-14.9566 291.549 6.46875 342.21 44.9716 380.148C83.1108 417.725 133.477 438.364 186.959 438.362C187.47 438.362 187.987 438.36 188.499 438.356C300.078 437.53 390.183 346.081 389.357 234.501C388.531 122.921 297.103 32.8558 185.502 33.6429M188.704 432.554C188.117 432.559 187.537 432.562 186.952 432.562C135.103 432.56 86.2481 412.581 49.2198 376.189C11.774 339.386 -9.09936 290.205 -9.55467 237.703C-10.4942 129.323 76.9158 40.3848 185.296 39.4453C185.879 39.4404 186.446 39.4374 187.026 39.4374C294.615 39.4374 382.62 126.498 383.555 234.296C384.493 342.677 297.084 431.615 188.704 432.554M187.026 38.4421C186.45 38.4421 185.866 38.4441 185.288 38.449C76.3579 39.3935 -11.4945 128.782 -10.551 237.712C-10.0937 290.48 10.8853 339.911 48.5214 376.9C85.739 413.479 134.837 433.558 186.952 433.558C187.537 433.558 188.126 433.555 188.712 433.55C297.642 432.606 385.494 343.217 384.551 234.287C383.611 125.936 295.169 38.4421 187.026 38.4421M323.941 370.23C288.088 406.809 240.134 427.235 188.916 427.748C188.265 427.755 187.619 427.757 186.97 427.757C82.1244 427.755 -3.69745 342.996 -4.74854 237.916C-5.80461 132.186 79.3538 45.3085 185.084 44.2515C185.735 44.2445 186.38 44.2415 187.029 44.2415C291.875 44.2415 377.697 129.004 378.749 234.083C379.261 285.3 359.796 333.652 323.941 370.23M185.074 43.2552C78.7948 44.3172 -6.80589 131.647 -5.74483 237.926C-5.22975 289.41 15.3029 337.612 52.0712 373.653C88.3682 409.231 136.196 428.754 186.946 428.754C187.604 428.754 188.266 428.751 188.926 428.744C240.41 428.229 288.613 407.697 324.654 370.929C360.695 334.16 380.259 285.557 379.745 234.073C378.682 127.794 291.386 42.225 185.074 43.2552M189.13 422.942C188.406 422.95 187.69 422.954 186.97 422.954C84.8702 422.95 1.22326 340.485 0.0575929 238.129C-1.11604 135.049 81.7897 50.2312 184.87 49.0576C185.603 49.0486 186.328 49.0446 187.059 49.0446C236.18 49.0446 282.494 67.9105 317.683 102.306C353.394 137.212 373.373 183.936 373.942 233.87C375.116 336.95 292.21 421.768 189.13 422.942M318.379 101.593C283.001 67.0128 236.446 48.0483 187.059 48.0483C186.328 48.0483 185.592 48.0523 184.859 48.0613C81.2298 49.2419 -2.11832 134.511 -0.938704 238.141C0.233936 341.048 84.3173 423.951 186.969 423.951C187.688 423.951 188.42 423.946 189.141 423.939C292.77 422.758 376.118 337.488 374.939 233.858C374.366 183.658 354.28 136.686 318.379 101.593M317.445 363.133C283.487 397.976 237.993 417.511 189.342 418.135C188.537 418.146 187.739 418.151 186.936 418.151C139.179 418.149 94.1328 399.842 59.8672 366.445C25.0238 332.487 5.48939 286.992 4.86372 238.342C4.23904 189.692 22.5958 143.71 56.5545 108.866C90.5132 74.0228 136.007 54.4894 184.658 53.8637C185.463 53.8538 186.262 53.8478 187.064 53.8478C234.822 53.8478 279.867 72.1567 314.133 105.554C348.976 139.512 368.511 185.007 369.135 233.657C369.761 282.307 351.404 328.29 317.445 363.133M370.132 233.645C369.504 184.728 349.863 138.984 314.829 104.84C279.795 70.6961 233.594 52.2348 184.645 52.8674C135.729 53.4961 89.9852 73.1371 55.8412 108.171C21.6971 143.205 3.23976 189.438 3.86743 238.354C4.49709 287.271 24.1371 333.015 59.1708 367.159C93.6267 400.741 138.914 419.149 186.936 419.148C187.74 419.148 188.549 419.143 189.355 419.132C238.271 418.504 284.015 398.863 318.159 363.829C352.303 328.795 370.76 282.561 370.132 233.645M189.555 413.329C188.683 413.342 187.83 413.348 186.963 413.348C90.3598 413.339 11.0667 335.463 9.67085 238.554C8.98739 191.187 26.7912 146.391 59.8024 112.415C92.8127 78.4393 137.079 59.3523 184.445 58.6699C185.317 58.6569 186.17 58.6509 187.037 58.6509C283.639 58.6509 362.933 136.536 364.33 233.445C365.739 331.225 287.335 411.92 189.555 413.329M187.038 57.6546C186.171 57.6546 185.301 57.6606 184.431 57.6736C136.798 58.36 92.2847 77.5536 59.0871 111.721C25.8915 145.888 7.98711 190.936 8.67455 238.569C10.0783 336.027 89.8089 414.344 186.962 414.344C187.829 414.344 188.699 414.338 189.569 414.325C287.898 412.909 366.743 331.759 365.326 233.43C363.922 135.971 284.191 57.6546 187.038 57.6546M310.95 356.035C278.887 389.144 235.85 407.785 189.767 408.523C188.817 408.539 187.872 408.546 186.924 408.546C141.896 408.545 99.3892 391.351 66.9648 359.949C33.8559 327.886 15.2152 284.85 14.477 238.767C13.7377 192.684 30.9876 149.072 63.0514 115.964C95.1131 82.8559 138.15 64.2152 184.233 63.476C185.173 63.461 186.105 63.4531 187.041 63.4531C280.901 63.4531 358.013 139.043 359.524 233.232C360.263 279.315 343.012 322.927 310.95 356.035M184.217 62.4797C137.868 63.2229 94.5831 81.9712 62.335 115.27C30.0869 148.571 12.7374 192.433 13.4807 238.782C14.2239 285.132 32.9712 328.417 66.2714 360.665C98.8861 392.25 141.632 409.542 186.924 409.542C187.875 409.542 188.83 409.535 189.783 409.519C236.132 408.776 279.418 390.029 311.666 356.729C343.913 323.429 361.264 279.566 360.52 233.217C358.984 137.538 279.858 60.9474 184.217 62.4797M307.702 352.486C276.587 384.726 234.779 402.921 189.98 403.717C188.97 403.735 187.963 403.744 186.956 403.744C95.8375 403.743 20.9081 330.449 19.2821 238.979C17.6402 146.5 91.5414 69.925 184.021 68.2821C185.031 68.2642 186.038 68.2552 187.044 68.2552C278.163 68.2552 353.092 141.55 354.718 233.02C355.514 277.818 338.817 320.246 307.702 352.486M184.003 67.2858C90.9735 68.9387 16.634 145.968 18.2858 238.997C19.9217 331.015 95.2875 404.74 186.956 404.74C187.963 404.74 188.987 404.73 189.998 404.713C235.063 403.912 277.118 385.61 308.419 353.178C339.719 320.746 356.514 278.067 355.714 233.002C354.061 139.973 277.012 65.627 184.003 67.2858M304.454 348.938C274.286 380.311 233.708 398.058 190.193 398.911C146.637 399.758 105.435 383.619 74.0624 353.453C42.6891 323.286 24.9411 282.708 24.0882 239.193C23.2354 195.677 39.3794 154.434 69.5462 123.061C99.7141 91.6881 140.292 73.9411 183.807 73.0882C184.902 73.0663 185.994 73.0564 187.085 73.0564C229.39 73.0564 269.354 89.1376 299.938 118.546C331.311 148.713 349.059 189.292 349.912 232.806C350.765 276.323 334.621 317.565 304.454 348.938M183.787 72.0919C140.006 72.9498 99.18 90.8064 68.8289 122.371C38.4777 153.936 22.2341 195.43 23.0919 239.212C23.9507 282.993 41.8074 323.819 73.371 354.17C104.145 383.761 144.347 399.939 186.914 399.939C188.01 399.939 189.114 399.928 190.213 399.907C233.994 399.048 274.82 381.193 305.171 349.629C335.522 318.063 351.766 276.569 350.908 232.787C349.136 142.409 274.157 70.2956 183.787 72.0919M301.205 345.389C271.986 375.894 232.637 393.195 190.405 394.105C148.17 395.032 108.116 379.423 77.6102 350.205C47.1057 320.987 29.805 281.636 28.8954 239.405C27.9857 197.173 43.5758 157.116 72.7951 126.61C102.013 96.1047 141.363 78.804 183.595 77.8944C184.763 77.8695 185.926 77.8565 187.09 77.8565C228.032 77.8565 266.727 93.3838 296.39 121.794C326.894 151.014 344.195 190.362 345.105 232.594C346.014 274.826 330.424 314.884 301.205 345.389M297.078 121.075C266.382 91.6721 226.091 75.9835 183.574 76.8981C141.076 77.8137 101.478 95.2239 72.0748 125.921C42.6731 156.619 26.9835 196.929 27.8991 239.426C28.8147 281.924 46.2239 321.521 76.9218 350.925C106.773 379.517 145.708 395.139 186.909 395.139C188.078 395.139 189.254 395.127 190.426 395.101C232.924 394.185 272.522 376.776 301.925 346.078C331.327 315.381 347.017 275.07 346.101 232.573C345.185 190.075 327.776 150.477 297.078 121.075M297.957 341.84C269.686 371.478 231.565 388.332 190.618 389.298C189.39 389.327 188.171 389.342 186.949 389.342C104.064 389.338 35.6662 322.918 33.7015 239.617C31.7069 155.088 98.8532 84.6951 183.382 82.7005C267.878 80.692 338.305 147.852 340.298 232.382C341.266 273.33 326.228 312.202 297.957 341.84M183.359 81.7042C98.2804 83.7117 30.6977 154.562 32.7052 239.641C34.6838 323.488 103.518 390.339 186.949 390.339C188.174 390.339 189.411 390.324 190.641 390.295C231.855 389.322 270.223 372.358 298.678 342.528C327.132 312.697 342.268 273.572 341.295 232.358C339.286 147.279 268.428 79.7435 183.359 81.7042M294.708 338.292C267.386 367.062 230.494 383.47 190.83 384.492C151.148 385.523 113.478 371.03 84.7078 343.707C55.9378 316.385 39.5298 279.493 38.5076 239.829C37.4844 200.166 51.9686 162.478 79.292 133.708C106.614 104.938 143.506 88.5298 183.17 87.5066C184.47 87.4728 185.762 87.4568 187.054 87.4568C267.197 87.4568 333.414 151.589 335.493 232.17C336.516 271.833 322.031 309.522 294.708 338.292M183.145 86.5103C143.214 87.5405 106.075 104.058 78.5687 133.021C51.0629 161.984 36.4812 199.925 37.5113 239.855C38.5415 279.785 55.0591 316.924 84.0224 344.43C112.028 371.028 148.423 385.54 186.9 385.54C188.214 385.54 189.537 385.523 190.855 385.489C230.786 384.459 267.925 367.941 295.431 338.978C322.937 310.015 337.519 272.073 336.49 232.144C334.364 149.715 265.569 84.3783 183.145 86.5103M291.461 334.742C265.085 362.646 229.423 378.607 191.043 379.686C152.655 380.761 116.159 366.835 88.2566 340.46C60.3544 314.085 44.3927 278.423 43.3128 240.041C41.084 160.813 103.729 94.5415 182.957 92.3128C184.33 92.2739 185.69 92.255 187.055 92.255C264.454 92.255 328.496 154.101 330.687 231.958C331.767 270.337 317.835 306.84 291.461 334.742M182.93 91.3165C103.151 93.5611 40.0728 160.292 42.3165 240.069C44.5233 318.47 109.002 380.74 186.944 380.74C188.314 380.74 189.692 380.721 191.07 380.683C229.717 379.596 265.626 363.523 292.184 335.428C318.742 307.332 332.769 270.576 331.684 231.93C329.438 152.151 262.677 89.0917 182.93 91.3165M288.212 331.195C262.784 358.23 228.351 373.744 191.254 374.879C154.178 376.019 118.84 362.639 91.8045 337.211C64.77 311.784 49.2557 277.351 48.1199 240.254C46.9831 203.158 60.3604 167.839 85.7878 140.804C111.216 113.77 145.649 98.2557 182.745 97.1189C259.287 94.7816 323.534 155.166 325.88 231.744C327.017 268.841 313.64 304.16 288.212 331.195M182.714 96.1226C145.352 97.2673 110.672 112.893 85.0625 140.122C59.4527 167.351 45.9788 202.922 47.1236 240.285C48.2683 277.647 63.8942 312.327 91.123 337.936C117.282 362.542 151.139 375.943 186.891 375.943C188.35 375.943 189.819 375.92 191.286 375.875C228.648 374.732 263.328 359.106 288.937 331.877C314.547 304.648 328.021 269.077 326.876 231.714C324.513 154.586 259.869 93.7683 182.714 96.1226M284.963 327.646C260.484 353.813 227.28 368.881 191.467 370.074C155.653 371.279 121.52 358.442 95.3543 333.963C69.1866 309.483 54.1186 276.279 52.926 240.466C51.7315 204.654 64.5578 170.52 89.0368 144.353C113.517 118.187 146.721 103.118 182.534 101.925C184.064 101.874 185.59 101.848 187.113 101.848C221.247 101.848 253.598 114.602 278.647 138.036C304.813 162.516 319.881 195.72 321.074 231.533C322.268 267.345 309.443 301.479 284.963 327.646M182.5 100.93C146.421 102.131 112.971 117.311 88.3085 143.673C63.6472 170.034 50.7282 204.421 51.9297 240.5C54.3597 313.455 114.481 371.146 186.941 371.146C188.453 371.146 189.977 371.121 191.501 371.07C265.978 368.589 324.551 305.977 322.07 231.499C319.589 157.022 256.987 98.425 182.5 100.93M281.715 324.098C258.183 349.397 226.208 364.018 191.678 365.268C190.091 365.326 188.516 365.355 186.939 365.355C117.759 365.351 60.2538 310.369 57.7321 240.678C55.1517 169.399 111.043 109.311 182.322 106.73C253.595 104.144 313.688 160.042 316.268 231.321C317.518 265.85 305.247 298.798 281.715 324.098M187.061 105.649C185.477 105.649 183.881 105.677 182.285 105.735C110.458 108.335 54.1365 168.887 56.7359 240.714C59.2784 310.947 117.22 366.351 186.939 366.351C188.523 366.351 190.119 366.322 191.715 366.264C226.51 365.004 258.732 350.271 282.445 324.775C306.158 299.282 318.523 266.079 317.264 231.285C314.722 161.052 256.78 105.649 187.061 105.649M278.467 320.549C255.882 344.981 225.136 359.156 191.89 360.462C190.215 360.527 188.549 360.56 186.88 360.56C155.468 360.558 125.651 348.912 102.451 327.466C78.0187 304.882 63.8444 274.136 62.5383 240.89C61.2321 207.645 72.9486 175.881 95.5336 151.45C118.118 127.018 148.864 112.843 182.11 111.537C183.769 111.472 185.416 111.44 187.062 111.44C253.506 111.44 308.831 164.139 311.463 231.109C312.769 264.354 301.051 296.118 278.467 320.549M182.071 110.542C148.559 111.858 117.567 126.146 94.8023 150.773C72.037 175.4 60.2259 207.418 61.542 240.929C62.8591 274.441 77.147 305.432 101.774 328.198C125.161 349.815 155.213 361.557 186.879 361.557C188.558 361.557 190.242 361.524 191.929 361.458C225.441 360.141 256.433 345.853 279.198 321.226C301.963 296.598 313.775 264.58 312.459 231.07C309.739 161.893 251.281 107.828 182.071 110.542M192.103 355.656C190.371 355.729 188.653 355.766 186.937 355.766C123.23 355.762 70.0832 305.35 67.3434 241.103C64.5299 175.124 115.919 119.157 181.897 116.343C247.873 113.537 303.842 164.918 306.657 230.896C309.47 296.876 258.081 352.842 192.103 355.656M181.855 115.348C115.328 118.186 63.5117 174.618 66.3471 241.145C69.1108 305.93 122.695 356.762 186.937 356.762C188.663 356.762 190.403 356.726 192.145 356.652C258.672 353.814 310.488 297.382 307.653 230.854C304.815 164.327 248.38 112.513 181.855 115.348M271.97 313.454C251.28 336.149 222.992 349.431 192.314 350.849C161.635 352.259 132.242 341.657 109.546 320.969C86.8509 300.28 73.5693 271.991 72.1495 241.314C69.2194 177.985 118.359 124.08 181.686 121.15C245.008 118.225 298.919 167.357 301.85 230.685C303.27 261.363 292.659 290.758 271.97 313.454M181.639 120.154C117.763 123.109 68.1992 177.483 71.1552 241.36C72.5859 272.303 85.9821 300.836 108.875 321.705C130.411 341.336 157.925 351.971 186.872 351.971C188.695 351.971 190.526 351.929 192.361 351.844C223.304 350.413 251.837 337.018 272.706 314.124C293.574 291.231 304.277 261.583 302.845 230.639C299.89 166.762 245.539 117.207 181.639 120.154M192.526 346.044C190.652 346.138 188.794 346.185 186.937 346.185C128.698 346.181 79.9087 300.329 76.9557 241.525C73.909 180.847 120.796 129.002 181.474 125.956C242.165 122.895 293.998 169.796 297.044 230.474C300.091 291.152 253.204 342.997 192.526 346.044M181.423 124.96C120.197 128.035 72.8868 180.348 75.9614 241.575C78.9403 300.914 128.166 347.181 186.937 347.181C188.806 347.181 190.689 347.134 192.577 347.039C253.803 343.964 301.113 291.651 298.039 230.424C294.964 169.197 242.673 121.874 181.423 124.96M265.472 306.357C246.678 327.318 220.848 339.706 192.737 341.238C164.641 342.771 137.602 333.265 116.642 314.472C95.682 295.678 83.2941 269.847 81.7618 241.736C78.5986 183.709 123.235 133.925 181.263 130.761C239.271 127.612 289.074 172.234 292.238 230.263C293.77 258.372 284.265 285.397 265.472 306.357M181.208 129.766C122.632 132.961 77.5744 183.215 80.7675 241.791C82.3147 270.166 94.8192 296.242 115.978 315.213C135.659 332.86 160.636 342.395 186.867 342.394C188.835 342.394 190.811 342.34 192.791 342.232C221.167 340.685 247.243 328.181 266.213 307.022C285.184 285.864 294.78 258.584 293.233 230.208C290.039 171.632 239.793 126.561 181.208 129.766M192.949 336.432C190.931 336.552 188.931 336.609 186.937 336.609C134.16 336.604 89.7282 295.308 86.5679 241.947C84.9798 215.121 93.9325 189.282 111.778 169.189C129.623 149.097 154.225 137.157 181.052 135.567C236.434 132.297 284.152 174.674 287.433 230.052C290.713 285.43 248.327 333.152 192.949 336.432M180.994 134.573C153.901 136.178 129.055 148.237 111.033 168.527C93.01 188.82 83.9686 214.915 85.5736 242.007C88.7648 295.899 133.633 337.606 186.936 337.606C188.947 337.606 190.973 337.547 193.007 337.426C248.934 334.114 291.739 285.919 288.427 229.992C285.114 174.065 236.895 131.258 180.994 134.573M258.973 299.262C242.075 318.487 218.702 329.98 193.16 331.625C191.07 331.759 189 331.826 186.936 331.826C136.886 331.823 94.6359 292.799 91.3741 242.159C87.9777 189.431 128.113 143.769 180.84 140.374C233.575 136.966 279.23 177.112 282.626 229.84C284.272 255.383 275.871 280.038 258.973 299.262M180.777 139.379C127.5 142.811 86.9485 188.946 90.3788 242.223C93.6755 293.392 136.362 332.822 186.935 332.822C189.017 332.822 191.116 332.755 193.223 332.619C219.031 330.958 242.648 319.345 259.721 299.92C276.796 280.495 285.282 255.585 283.62 229.776C280.189 176.501 234.088 135.947 180.777 139.379M255.724 295.714C239.773 314.071 217.629 325.118 193.37 326.819C143.293 330.347 99.6931 292.448 96.1802 242.37C92.6672 192.291 130.552 148.691 180.63 145.179C182.788 145.028 184.932 144.953 187.063 144.953C234.389 144.953 274.458 181.709 277.82 229.629C279.521 253.889 271.675 277.358 255.724 295.714M180.56 144.185C129.935 147.736 91.6351 191.813 95.1859 242.44C98.5842 290.887 139.087 328.046 186.936 328.041C189.087 328.041 191.261 327.967 193.44 327.813C217.963 326.094 240.351 314.926 256.475 296.369C272.601 277.811 280.535 254.084 278.814 229.559C275.263 178.934 231.194 140.637 180.56 144.185M193.58 322.014C146.13 325.652 104.615 290.007 100.985 242.58C99.2279 219.604 106.523 197.32 121.526 179.831C136.529 162.342 157.444 151.743 180.419 149.985C227.852 146.351 269.385 181.991 273.015 229.419C276.643 276.848 241.009 318.385 193.58 322.014M180.343 148.992C157.103 150.769 135.946 161.492 120.769 179.183C105.593 196.874 98.2146 219.415 99.992 242.656C103.491 288.38 141.816 323.267 186.939 323.265C189.161 323.265 191.405 323.18 193.657 323.008C241.632 319.337 277.678 277.32 274.008 229.343C270.338 181.367 228.313 145.33 180.343 148.992M249.224 288.621C235.168 305.242 215.482 315.394 193.789 317.209C172.107 319.018 150.999 312.28 134.379 298.224C117.758 284.168 107.606 264.482 105.791 242.789C103.978 221.098 110.72 199.998 124.776 183.378C138.832 166.757 158.518 156.605 180.211 154.791C201.893 152.98 223.001 159.72 239.621 173.775C256.242 187.831 266.394 207.518 268.209 229.21C270.022 250.901 263.28 272.001 249.224 288.621M240.264 173.015C223.441 158.787 202.082 151.96 180.127 153.799C158.17 155.634 138.243 165.91 124.015 182.735C109.788 199.558 102.963 220.916 104.799 242.872C106.635 264.829 116.911 284.757 133.736 298.985C148.762 311.693 167.404 318.495 186.861 318.495C189.188 318.495 191.528 318.397 193.873 318.201C215.829 316.365 235.757 306.089 249.985 289.264C264.212 272.441 271.037 251.083 269.201 229.127C267.365 207.17 257.089 187.242 240.264 173.015M245.974 285.075C232.866 300.827 214.409 310.533 193.999 312.402C173.59 314.272 153.677 308.082 137.925 294.973C122.173 281.865 112.467 263.407 110.598 242.999C106.738 200.87 137.871 163.456 180.001 159.597C222.116 155.73 259.543 186.871 263.402 229C265.272 249.408 259.083 269.323 245.974 285.075M179.909 158.604C137.235 162.515 105.697 200.415 109.605 243.09C111.5 263.763 121.331 282.461 137.288 295.739C151.379 307.465 168.756 313.725 186.863 313.725C189.261 313.725 191.673 313.615 194.091 313.395C214.763 311.5 233.462 301.669 246.74 285.712C260.019 269.755 266.289 249.582 264.396 228.909C260.484 186.234 222.594 154.701 179.909 158.604M242.724 281.528C230.564 296.414 213.334 305.671 194.209 307.596C154.726 311.566 119.378 282.687 115.403 243.208C113.477 224.084 119.114 205.354 131.276 190.471C143.436 175.586 160.666 166.329 179.791 164.403C219.278 160.427 254.621 189.313 258.597 228.791C260.522 247.915 254.886 266.645 242.724 281.528M179.692 163.411C160.303 165.364 142.834 174.749 130.505 189.84C118.174 204.93 112.46 223.918 114.412 243.308C118.192 280.861 149.977 308.958 186.946 308.957C189.38 308.957 191.836 308.836 194.308 308.587C213.697 306.635 231.166 297.25 243.495 282.159C255.826 267.069 261.54 248.08 259.588 228.691C255.558 188.666 219.728 159.375 179.692 163.411M194.417 302.79C157.594 306.881 124.3 280.245 120.209 243.417C116.119 206.588 142.755 173.298 179.584 169.208C182.092 168.93 184.582 168.793 187.05 168.793C220.811 168.793 249.979 194.262 253.791 228.582C257.881 265.411 231.246 298.701 194.417 302.79M179.472 168.218C142.099 172.368 115.069 206.151 119.219 243.527C123.087 278.358 152.686 304.205 186.949 304.201C189.451 304.201 191.984 304.062 194.529 303.78C231.902 299.631 258.931 265.848 254.781 228.472C250.632 191.098 216.873 164.075 179.472 168.218M194.624 297.986C192.046 298.303 189.49 298.456 186.956 298.456C155.893 298.454 128.903 275.225 125.014 243.624C122.978 227.068 127.511 210.709 137.779 197.56C148.045 184.413 162.818 176.05 179.376 174.014C213.552 169.811 244.781 194.196 248.986 228.375C253.19 262.554 228.804 293.781 194.624 297.986M179.253 173.025C162.433 175.094 147.424 183.589 136.993 196.948C126.561 210.305 121.956 226.925 124.026 243.746C127.975 275.852 155.395 299.453 186.955 299.453C189.528 299.453 192.128 299.296 194.747 298.974C229.472 294.703 254.246 262.977 249.974 228.253C245.703 193.529 213.987 168.753 179.253 173.025M232.971 270.895C223.649 283.174 210.105 291.089 194.831 293.181C179.554 295.272 164.385 291.291 152.105 281.971C139.826 272.649 131.911 259.105 129.819 243.831C127.728 228.557 131.709 213.384 141.029 201.104C150.351 188.825 163.895 180.911 179.169 178.819C181.828 178.455 184.483 178.275 187.12 178.275C199.637 178.275 211.753 182.331 221.895 190.029C234.174 199.35 242.089 212.894 244.181 228.168C246.272 243.442 242.291 258.615 232.971 270.895M222.498 189.235C210.006 179.754 194.57 175.705 179.034 177.832C163.496 179.96 149.718 188.011 140.235 200.502C130.755 212.993 126.705 228.429 128.833 243.967C130.961 259.503 139.012 273.282 151.502 282.764C161.821 290.595 174.145 294.721 186.878 294.72C189.56 294.72 192.263 294.538 194.966 294.167C210.504 292.039 224.283 283.988 233.764 271.497C243.245 259.006 247.295 243.57 245.167 228.032C243.039 212.496 234.988 198.717 222.498 189.235M229.719 267.351C221.344 278.761 209.027 286.229 195.037 288.375C181.049 290.519 167.058 287.092 155.648 278.718C144.238 270.344 136.772 258.027 134.625 244.037C132.478 230.047 135.908 216.058 144.282 204.648C152.656 193.237 164.973 185.77 178.963 183.624C181.675 183.208 184.367 183.007 187.031 183.007C212.729 183.007 235.36 201.795 239.376 227.962C241.523 241.952 238.093 255.941 229.719 267.351M178.811 182.639C149.389 187.154 129.125 214.764 133.64 244.188C137.732 270.849 160.784 289.989 186.968 289.989C189.68 289.989 192.426 289.784 195.189 289.36C224.612 284.845 244.876 257.234 240.361 227.811C235.844 198.388 208.238 178.129 178.811 182.639M226.465 263.81C219.036 274.352 207.948 281.369 195.241 283.571C182.533 285.771 169.732 282.892 159.19 275.464C148.649 268.035 141.631 256.947 139.429 244.24C137.229 231.534 140.107 218.731 147.535 208.189C154.964 197.647 166.052 190.63 178.759 188.428C181.537 187.948 184.297 187.716 187.024 187.716C210.058 187.716 230.508 204.305 234.572 227.759C236.772 240.465 233.893 253.268 226.465 263.81M178.59 187.447C165.62 189.694 154.303 196.856 146.72 207.615C139.139 218.375 136.201 231.441 138.449 244.41C140.695 257.379 147.857 268.697 158.616 276.279C167.018 282.2 176.825 285.288 186.895 285.287C189.72 285.287 192.57 285.044 195.41 284.552C208.38 282.305 219.697 275.143 227.28 264.384C234.862 253.625 237.8 240.558 235.552 227.589C230.914 200.817 205.361 182.81 178.59 187.447M195.444 278.766C192.604 279.327 189.776 279.596 186.986 279.596C166.598 279.594 148.329 265.184 144.233 244.443C139.578 220.861 154.975 197.888 178.556 193.233C202.148 188.576 225.111 203.976 229.767 227.556C234.422 251.138 219.025 274.111 195.444 278.766M178.364 192.255C154.243 197.017 138.494 220.515 143.256 244.635C147.445 265.852 166.131 280.593 186.985 280.593C189.839 280.593 192.733 280.317 195.636 279.744C219.757 274.982 235.506 251.484 230.744 227.364C225.983 203.243 202.482 187.496 178.364 192.255M219.956 256.732C214.418 265.536 205.784 271.655 195.642 273.963C174.716 278.728 153.803 265.576 149.036 244.642C146.727 234.502 148.506 224.069 154.045 215.267C159.582 206.463 168.216 200.344 178.358 198.036C181.255 197.376 184.15 197.06 187.004 197.06C204.767 197.06 220.857 209.322 224.963 227.357C227.273 237.497 225.494 247.93 219.956 256.732M178.136 197.064C167.736 199.431 158.881 205.708 153.201 214.736C147.521 223.764 145.697 234.463 148.065 244.863C152.276 263.361 168.777 275.935 186.996 275.935C189.922 275.935 192.894 275.611 195.864 274.935C206.264 272.568 215.12 266.291 220.8 257.263C226.479 248.235 228.303 237.536 225.935 227.136C221.048 205.667 199.604 192.175 178.136 197.064M216.699 253.199C212.104 261.132 204.697 266.801 195.839 269.161C177.546 274.036 158.712 263.122 153.839 244.838C151.478 235.98 152.707 226.733 157.301 218.8C161.896 210.867 169.303 205.198 178.162 202.838C187.019 200.478 196.266 201.707 204.2 206.301C212.132 210.895 217.801 218.303 220.161 227.161C222.522 236.019 221.293 245.266 216.699 253.199M204.699 205.439C196.536 200.711 187.019 199.444 177.905 201.875C168.79 204.304 161.167 210.138 156.439 218.3C151.712 226.464 150.446 235.979 152.875 245.095C157.083 260.876 171.398 271.32 187.008 271.319C190.009 271.319 193.061 270.933 196.096 270.124C205.21 267.695 212.833 261.861 217.561 253.699C222.288 245.535 223.554 236.019 221.125 226.904C218.695 217.789 212.861 210.166 204.699 205.439M213.44 249.671C209.788 256.732 203.605 261.95 196.029 264.362C188.454 266.774 180.392 266.092 173.329 262.439C166.267 258.788 161.05 252.604 158.638 245.028C156.226 237.452 156.909 229.391 160.561 222.328C164.212 215.267 170.395 210.049 177.97 207.637C180.963 206.684 183.995 206.232 186.98 206.232C199.596 206.232 211.336 214.324 215.362 226.97C217.774 234.546 217.092 242.608 213.44 249.671M201.128 208.675C193.829 204.9 185.496 204.196 177.669 206.687C169.839 209.18 163.449 214.572 159.675 221.871C155.902 229.17 155.196 237.501 157.688 245.331C160.181 253.161 165.573 259.551 172.872 263.324C177.305 265.616 182.116 266.776 186.966 266.776C190.102 266.776 193.256 266.29 196.331 265.312C204.161 262.819 210.551 257.427 214.325 250.128C218.099 242.829 218.804 234.497 216.312 226.668C213.819 218.838 208.427 212.448 201.128 208.675M196.212 259.566C189.918 262.027 183.042 261.889 176.849 259.178C170.659 256.466 165.894 251.507 163.434 245.212C160.972 238.917 161.111 232.04 163.822 225.849C166.533 219.658 171.493 214.893 177.788 212.433C190.78 207.352 205.488 213.792 210.567 226.787C215.647 239.782 209.207 254.487 196.212 259.566M177.426 211.505C170.882 214.062 165.727 219.015 162.909 225.45C160.091 231.885 159.948 239.031 162.506 245.575C165.063 252.118 170.016 257.272 176.451 260.091C179.832 261.571 183.409 262.314 186.993 262.314C190.229 262.314 193.469 261.708 196.574 260.494C203.118 257.937 208.273 252.984 211.091 246.549C213.909 240.114 214.052 232.968 211.495 226.424C206.214 212.917 190.929 206.225 177.426 211.505M196.385 254.779C186.03 259.952 173.396 255.738 168.22 245.384C163.047 235.029 167.261 222.395 177.615 217.22C180.62 215.72 183.815 215.009 186.966 215.009C194.673 215.009 202.105 219.265 205.78 226.615C210.953 236.97 206.739 249.604 196.385 254.779M177.17 216.33C166.324 221.749 161.91 234.983 167.33 245.83C171.177 253.529 178.962 257.987 187.035 257.987C190.335 257.987 193.684 257.242 196.83 255.669C202.084 253.044 206.001 248.53 207.859 242.958C209.719 237.386 209.296 231.424 206.67 226.169C201.25 215.324 188.016 210.909 177.17 216.33M203.651 239.158C202.807 243.605 200.281 247.458 196.54 250.006C192.798 252.555 188.288 253.494 183.842 252.65C179.394 251.806 175.541 249.281 172.993 245.54C167.733 237.816 169.737 227.253 177.46 221.993C180.305 220.055 183.595 219.048 186.965 219.048C188.025 219.048 189.094 219.147 190.158 219.349C194.606 220.193 198.459 222.718 201.007 226.459C203.555 230.201 204.494 234.71 203.651 239.158M190.343 218.37C185.634 217.479 180.859 218.471 176.899 221.17C168.721 226.739 166.599 237.922 172.17 246.1C174.868 250.062 178.947 252.735 183.657 253.629C184.784 253.842 185.915 253.949 187.037 253.949C190.605 253.948 194.088 252.882 197.101 250.829C201.062 248.131 203.736 244.053 204.629 239.343C205.523 234.635 204.528 229.859 201.83 225.899C199.132 221.937 195.053 219.264 190.343 218.37M196.675 245.267C191.566 250.601 183.067 250.784 177.732 245.674C175.148 243.199 173.683 239.865 173.606 236.287C173.529 232.71 174.851 229.315 177.325 226.732C182.434 221.398 190.933 221.214 196.268 226.325C198.851 228.8 200.317 232.134 200.394 235.712C200.47 239.289 199.149 242.683 196.675 245.267M176.605 226.043C173.946 228.818 172.527 232.465 172.61 236.308C172.693 240.152 174.267 243.734 177.044 246.393C179.828 249.061 183.414 250.386 186.998 250.386C190.786 250.386 194.572 248.903 197.395 245.956C200.054 243.181 201.473 239.534 201.39 235.691C201.307 231.847 199.733 228.265 196.956 225.606C191.228 220.118 182.099 220.311 176.605 226.043" fill="url(#paint0_radial_1187_23429)"/>
<defs>
<radialGradient id="paint0_radial_1187_23429" cx="0" cy="0" r="1" gradientUnits="userSpaceOnUse" gradientTransform="translate(187 236) rotate(90) scale(207.598)">
<stop stop-color="#F7295F" stop-opacity="0.01"/>
<stop offset="0.237022" stop-color="#F7295F" stop-opacity="0.373525"/>
<stop offset="0.432108" stop-color="#F53522"/>
<stop offset="0.784862" stop-color="#F7295F" stop-opacity="0.169213"/>
<stop offset="1" stop-color="#F7295F" stop-opacity="0"/>
</radialGradient>
</defs>
</svg>
