<svg width="20" height="20" viewBox="0 0 20 20" fill="none" xmlns="http://www.w3.org/2000/svg">
<g id="Group">
<path id="Vector" d="M20 10.0608C20.0004 8.13847 19.4532 6.25626 18.4231 4.63706C17.393 3.01785 15.9232 1.72946 14.1877 0.92445C12.4522 0.119437 10.5237 -0.168485 8.63053 0.0947747C6.73739 0.358034 4.9589 1.16145 3.50564 2.40989C2.05237 3.65833 0.985206 5.29951 0.430495 7.13911C-0.124217 8.9787 -0.143239 10.9397 0.37568 12.7898C0.894599 14.6399 1.92973 16.3017 3.35849 17.5784C4.78726 18.8552 6.54983 19.6933 8.4375 19.9937V12.9678H5.89875V10.0608H8.4375V7.84415C8.38284 7.32669 8.44199 6.80348 8.61078 6.31159C8.77957 5.81969 9.05386 5.37116 9.4142 4.99779C9.77455 4.62441 10.2121 4.33533 10.6959 4.15104C11.1797 3.96674 11.6979 3.89174 12.2137 3.93135C12.9638 3.94126 13.7121 4.00681 14.4525 4.12749V6.60568H13.1925C12.9779 6.57745 12.7597 6.59813 12.554 6.66618C12.3484 6.73423 12.1607 6.84792 12.0046 6.99883C11.8486 7.14974 11.7283 7.33402 11.6526 7.53801C11.577 7.74201 11.5479 7.96051 11.5675 8.17734V10.0633H14.3412L13.8975 12.9703H11.5625V20C13.9153 19.6256 16.058 18.4187 17.6048 16.5966C19.1516 14.7745 20.001 12.4568 20 10.0608Z" fill="#409CFF"/>
</g>
</svg>
