<svg width="20" height="20" viewBox="0 0 20 20" fill="none" xmlns="http://www.w3.org/2000/svg">
<g id="Group 102">
<path id="Vector" d="M19.8055 8.0415H19V8H10V12H15.6515C14.827 14.3285 12.6115 16 10 16C6.6865 16 4 13.3135 4 10C4 6.6865 6.6865 4 10 4C11.5295 4 12.921 4.577 13.9805 5.5195L16.809 2.691C15.023 1.0265 12.634 0 10 0C4.4775 0 0 4.4775 0 10C0 15.5225 4.4775 20 10 20C15.5225 20 20 15.5225 20 10C20 9.3295 19.931 8.675 19.8055 8.0415Z" fill="#FFC107"/>
<path id="Vector_2" d="M1.15295 5.3455L4.43845 7.755C5.32745 5.554 7.48045 4 9.99995 4C11.5295 4 12.921 4.577 13.9805 5.5195L16.809 2.691C15.023 1.0265 12.634 0 9.99995 0C6.15895 0 2.82795 2.1685 1.15295 5.3455Z" fill="#FF3D00"/>
<path id="Vector_3" d="M10 20C12.583 20 14.93 19.0115 16.7045 17.404L13.6095 14.785C12.6055 15.5455 11.3575 16 10 16C7.39903 16 5.19053 14.3415 4.35853 12.027L1.09753 14.5395C2.75253 17.778 6.11353 20 10 20Z" fill="#4CAF50"/>
<path id="Vector_4" d="M19.8055 8.0415H19V8H10V12H15.6515C15.2555 13.1185 14.536 14.083 13.608 14.7855C13.6085 14.785 13.609 14.785 13.6095 14.7845L16.7045 17.4035C16.4855 17.6025 20 15 20 10C20 9.3295 19.931 8.675 19.8055 8.0415Z" fill="#1976D2"/>
</g>
</svg>
