<svg width="124" height="124" viewBox="0 0 124 124" fill="none" xmlns="http://www.w3.org/2000/svg">
<g id="Group 26">
<g id="Group 12">
<circle id="Oval Copy 4" cx="61.9996" cy="62" r="59.7857" fill="#F8FE11"/>
<circle id="Oval" cx="61.9997" cy="62" r="55.3571" fill="white"/>
<path id="Fill 1" fill-rule="evenodd" clip-rule="evenodd" d="M62 2.62358C53.9837 2.62358 46.2079 4.19327 38.8884 7.28923C31.818 10.2796 25.4679 14.5611 20.0145 20.0145C14.561 25.468 10.2796 31.818 7.28915 38.8884C4.19329 46.2077 2.62361 53.9837 2.62361 62C2.62361 70.0163 4.19329 77.7923 7.28915 85.1116C10.2796 92.182 14.561 98.5321 20.0145 103.985C25.4679 109.439 31.818 113.72 38.8884 116.711C46.2079 119.807 53.9837 121.376 62 121.376C70.0163 121.376 77.7922 119.807 85.1116 116.711C92.182 113.72 98.5321 109.439 103.985 103.985C109.439 98.5321 113.72 92.182 116.711 85.1116C119.807 77.7923 121.376 70.0163 121.376 62C121.376 53.9837 119.807 46.2077 116.711 38.8884C113.72 31.818 109.439 25.468 103.985 20.0145C98.5321 14.5611 92.182 10.2796 85.1116 7.28923C77.7922 4.19327 70.0163 2.62358 62 2.62358ZM62 124C53.6306 124 45.511 122.361 37.8664 119.127C30.4833 116.004 23.853 111.534 18.1593 105.841C12.4657 100.147 7.99555 93.5168 4.87281 86.1337C1.63943 78.4892 0 70.3694 0 62C0 53.6307 1.63943 45.5109 4.87281 37.8664C7.99555 30.4834 12.4657 23.8529 18.1593 18.1594C23.853 12.4659 30.4833 7.99567 37.8664 4.87281C45.511 1.63943 53.6306 0 62 0C70.3694 0 78.4891 1.63943 86.1336 4.87281C93.5168 7.99567 100.147 12.4659 105.841 18.1594C111.534 23.8529 116.004 30.4834 119.127 37.8664C122.361 45.5109 124 53.6307 124 62C124 70.3694 122.361 78.4892 119.127 86.1337C116.004 93.5168 111.534 100.147 105.841 105.841C100.147 111.534 93.5168 116.004 86.1336 119.127C78.4891 122.361 70.3694 124 62 124Z" fill="#F33B00"/>
<path id="Fill 4" fill-rule="evenodd" clip-rule="evenodd" d="M62.0001 6.66008C54.5289 6.66008 47.2815 8.12318 40.4596 11.0086C33.8699 13.7958 27.9514 17.7862 22.8689 22.8687C17.7863 27.9514 13.796 33.8697 11.0087 40.4595C8.12319 47.2815 6.6602 54.5288 6.6602 62C6.6602 69.4712 8.12319 76.7185 11.0087 83.5405C13.796 90.1303 17.7863 96.0486 22.8689 101.131C27.9514 106.214 33.8699 110.204 40.4596 112.991C47.2815 115.877 54.5289 117.34 62.0001 117.34C69.4712 117.34 76.7186 115.877 83.5405 112.991C90.1303 110.204 96.0487 106.214 101.131 101.131C106.214 96.0486 110.204 90.1303 112.991 83.5405C115.877 76.7185 117.34 69.4712 117.34 62C117.34 54.5288 115.877 47.2815 112.991 40.4595C110.204 33.8697 106.214 27.9514 101.131 22.8687C96.0487 17.7862 90.1303 13.7958 83.5405 11.0086C76.7186 8.12318 69.4712 6.66008 62.0001 6.66008ZM62.0001 119.089C54.2934 119.089 46.8169 117.579 39.7782 114.602C32.98 111.727 26.8748 107.611 21.6321 102.368C16.3894 97.1253 12.2732 91.02 9.39783 84.2219C6.42069 77.1831 4.91113 69.7065 4.91113 62C4.91113 54.2934 6.42069 46.8169 9.39783 39.7781C12.2732 32.98 16.3894 26.8747 21.6321 21.632C26.8748 16.3893 32.98 12.2732 39.7782 9.39771C46.8169 6.42057 54.2934 4.91101 62.0001 4.91101C69.7067 4.91101 77.1832 6.42057 84.2219 9.39771C91.0201 12.2732 97.1254 16.3893 102.368 21.632C107.611 26.8747 111.727 32.98 114.602 39.7781C117.579 46.8169 119.089 54.2934 119.089 62C119.089 69.7065 117.579 77.1831 114.602 84.2219C111.727 91.02 107.611 97.1253 102.368 102.368C97.1254 107.611 91.0201 111.727 84.2219 114.602C77.1832 117.579 69.7067 119.089 62.0001 119.089Z" fill="#F33B00"/>
<path id="Fill 6" fill-rule="evenodd" clip-rule="evenodd" d="M96.1959 62C96.1959 80.8857 80.8861 96.1956 62.0002 96.1956C43.1146 96.1956 27.8047 80.8857 27.8047 62C27.8047 43.1143 43.1146 27.8043 62.0002 27.8043C80.8861 27.8043 96.1959 43.1143 96.1959 62Z" fill="#F33B00"/>
<path id="Fill 6 Copy" fill-rule="evenodd" clip-rule="evenodd" d="M94.0994 62.6982C93.728 80.1081 79.4987 94.1071 61.9997 94.1071C44.2674 94.1071 29.8926 79.7323 29.8926 62C29.8926 44.2677 44.2675 29.8928 61.9997 29.8928C79.4987 29.8928 93.728 43.8919 94.0994 61.3018L94.1069 62L94.0994 62.6982ZM91.8849 61.314C91.5202 45.1214 78.2798 32.1071 61.9997 32.1071C45.4904 32.1071 32.1069 45.4907 32.1069 62C32.1069 78.5093 45.4904 91.8928 61.9997 91.8928C78.2798 91.8928 91.5202 78.8786 91.8849 62.6861L91.8926 62L91.8849 61.314Z" fill="white"/>
<path id="Fill 1_2" fill-rule="evenodd" clip-rule="evenodd" d="M100.412 85.6945L99.2478 85.1056C99.1665 85.0645 99.099 85.0539 99.0455 85.0738C98.992 85.0938 98.9413 85.1505 98.8936 85.244L98.5023 86.0103L100.127 86.8319L100.518 86.0656C100.604 85.8973 100.569 85.7737 100.412 85.6945ZM97.8675 84.4076L96.75 83.8424C96.5936 83.7634 96.4723 83.8078 96.3863 83.976L95.9951 84.7423L97.582 85.5448L97.9733 84.7785C98.0593 84.6104 98.024 84.4867 97.8675 84.4076ZM101.634 86.1478L100.374 88.6149L94.4019 85.5945L95.6617 83.1274C96.0658 82.3363 96.6122 82.1147 97.3008 82.463L98.3525 82.9949C98.8158 83.2293 99.0354 83.5167 99.011 83.8571C99.2607 83.6306 99.6014 83.6266 100.033 83.845L101.198 84.4338C101.893 84.7853 102.038 85.3568 101.634 86.1478ZM96.8769 91.89L92.5483 88.4649L91.6109 89.6382L95.7828 92.9394C95.9202 93.0482 95.9299 93.1764 95.812 93.324L95.4972 93.7179C95.3835 93.8601 95.2581 93.8769 95.1206 93.768L90.9488 90.467L90.0113 91.6403L94.3398 95.0654C94.9499 95.5482 95.5304 95.4449 96.0811 94.7557L96.9595 93.6562C97.5145 92.9616 97.487 92.3727 96.8769 91.89ZM90.1268 99.2521L86.4701 95.0402L85.3383 96.0133L89.7179 101.058L92.3084 98.831L91.5853 97.9981L90.1268 99.2521ZM84.8899 101.737L83.5801 102.498L84.0956 103.376C84.1452 103.461 84.1615 103.53 84.1446 103.584C84.1277 103.639 84.0768 103.691 83.9919 103.74L83.619 103.957C83.5281 104.01 83.4547 104.03 83.3988 104.018C83.343 104.006 83.2903 103.958 83.2406 103.873L81.1684 100.343C81.0798 100.193 81.1174 100.07 81.2811 99.9744L81.654 99.7576C81.8116 99.6659 81.9348 99.6956 82.0232 99.8464L82.5547 100.751L83.8643 99.99L83.264 98.9672C82.8743 98.3036 82.2943 98.1955 81.5243 98.6431L80.3602 99.32C79.5962 99.7641 79.4091 100.318 79.7987 100.982L82.0092 104.747C82.3989 105.411 82.9756 105.521 83.7396 105.076L84.9037 104.4C85.6737 103.952 85.8641 103.396 85.4743 102.732L84.8899 101.737ZM71.5714 108.567L70.352 103.135L68.8922 103.459L70.3527 109.966L73.6937 109.223L73.4526 108.149L71.5714 108.567ZM64.2209 109.546L63.9629 103.986L62.4688 104.054L62.7778 110.714L66.1975 110.557L66.1465 109.458L64.2209 109.546ZM56.8607 108.063L56.7149 105.195L55.776 107.911L56.8607 108.063ZM57.8822 103.792L58.4882 110.61L56.9863 110.399L56.9265 109.173L55.4141 108.961L55.0152 110.122L53.5445 109.915L55.984 103.525L57.8822 103.792ZM49.6047 102.94L48.7917 102.649L48.1904 104.317L49.0034 104.607C49.1817 104.671 49.3007 104.621 49.36 104.456L49.7833 103.282C49.8427 103.118 49.7832 103.003 49.6047 102.94ZM48.8433 105.703C48.8166 105.652 48.7538 105.609 48.6546 105.574L47.8416 105.284L47.2261 106.99L48.039 107.281C48.2175 107.345 48.3363 107.294 48.3957 107.13L48.837 105.906C48.8677 105.821 48.8699 105.753 48.8433 105.703ZM51.2276 103.653L50.8291 104.758C50.6535 105.245 50.3944 105.498 50.052 105.516C50.309 105.734 50.3558 106.07 50.1921 106.524L49.7509 107.748C49.4876 108.478 48.9361 108.693 48.0968 108.393L45.4795 107.458L47.7426 101.183L50.3599 102.118C51.1992 102.418 51.4885 102.929 51.2276 103.653ZM41.0218 98.8237L42.0727 99.4441L39.2188 104.231L40.5144 104.996L43.3681 100.209L44.428 100.835L44.9923 99.8881L41.5861 97.877L41.0218 98.8237ZM37.0895 95.7729L36.7105 95.4397C36.5685 95.3147 36.4392 95.3179 36.3231 95.4487L33.7006 98.4023C33.5843 98.5332 33.5973 98.6611 33.7393 98.7861L34.1182 99.1192C34.2551 99.2395 34.3816 99.2342 34.4979 99.1033L37.1203 96.1497C37.2365 96.0189 37.2263 95.8931 37.0895 95.7729ZM38.3886 96.9851L35.4941 100.245C34.978 100.826 34.3884 100.825 33.7253 100.242L32.6676 99.3124C31.9992 98.7247 31.9232 98.1402 32.4393 97.559L35.3338 94.299C35.8452 93.723 36.4351 93.7287 37.1035 94.3164L38.1612 95.2465C38.8243 95.8296 38.9 96.4091 38.3886 96.9851ZM31.8601 90.2368L31.5547 89.8356C31.4402 89.6853 31.3129 89.6629 31.1731 89.7683L28.0163 92.1485C27.8763 92.2541 27.8636 92.3821 27.9781 92.5324L28.2835 92.9335C28.3937 93.0782 28.5188 93.0979 28.6587 92.9925L31.8155 90.6122C31.9554 90.5068 31.9703 90.3815 31.8601 90.2368ZM32.8931 91.6804L29.4089 94.3075C28.7876 94.7759 28.2098 94.6593 27.6754 93.9574L26.8231 92.8378C26.2845 92.1303 26.3258 91.5425 26.9471 91.0741L30.4313 88.4469C31.047 87.9827 31.6242 88.1042 32.1628 88.8117L33.0151 89.9313C33.5495 90.6331 33.5088 91.2162 32.8931 91.6804ZM26.9494 86.1407L26.0139 86.5993L25.2366 85.0289L22.8082 86.2195L22.1426 84.8747L28.1522 81.9286L29.7441 85.1446L28.752 85.631L27.8257 83.7596L26.1721 84.5703L26.9494 86.1407Z" fill="#141414"/>
<path id="Fill 1_3" fill-rule="evenodd" clip-rule="evenodd" d="M101.084 32.3446L100.128 31.0998L96.9685 33.442L97.9248 34.6868C98.0406 34.8375 98.1535 34.9231 98.2636 34.9429C98.3735 34.963 98.4999 34.9201 98.6425 34.8142L100.996 33.0698C101.27 32.8667 101.299 32.6247 101.084 32.3446ZM103.101 35.1377L100.171 37.309C99.2059 38.0247 98.2933 38.0245 97.4336 37.3088L94.842 42.0714L92.9421 39.5979L95.617 35.0781L95.3065 34.674L91.39 37.5772L89.6266 35.2817L100.093 27.5234L103.346 31.7588C104.389 33.1168 104.307 34.2431 103.101 35.1377ZM87.2195 26.2069L90.0034 28.1967L91.2769 26.4773L88.4931 24.4875L90.373 21.9492L93.6404 24.2846L94.9139 22.5652L89.2629 18.5258L81.5486 28.9409L87.333 33.0754L88.6067 31.356L85.206 28.9253L87.2195 26.2069ZM83.4582 15.3842L76.1845 12.7523L75.4362 14.7477L77.6802 15.5597L73.8967 25.6507L76.6631 26.6517L80.4466 16.5607L82.71 17.3796L83.4582 15.3842ZM67.2205 11.2516L64.7112 11.0839C62.9835 10.9684 62.0683 11.6516 61.9657 13.1332L61.7628 16.063C61.6583 17.5717 62.415 18.38 64.0331 18.4883L65.843 18.6093C66.0486 18.6229 66.1902 18.6698 66.2673 18.7492C66.3444 18.8289 66.3769 18.9564 66.3648 19.1312L66.2038 21.4549C66.1805 21.7917 65.9837 21.9476 65.6135 21.9229L64.9142 21.8761C64.5439 21.8514 64.3705 21.6707 64.3938 21.3338L64.482 20.0609L61.5409 19.8644L61.426 21.5212C61.3224 23.0163 62.1413 23.8221 63.8828 23.9385L66.3715 24.1049C68.0993 24.2204 69.0149 23.5306 69.1185 22.0354L69.3284 19.0046C69.3788 18.2772 69.2247 17.7156 68.8666 17.3193C68.5082 16.9234 67.8901 16.6959 67.0128 16.6372L65.2439 16.519C65.0383 16.5053 64.8969 16.4587 64.8198 16.379C64.7425 16.2996 64.7101 16.1721 64.7221 15.997L64.8789 13.734C64.9022 13.3974 65.0991 13.2412 65.4692 13.2659L66.1686 13.3127C66.5388 13.3374 66.7123 13.5184 66.689 13.8549L66.6007 15.1278L69.5419 15.3245L69.6581 13.6474C69.7608 12.1658 68.9482 11.3671 67.2205 11.2516ZM52.0156 12.1328L53.878 19.6079L49.2722 12.7925L46.689 13.4135L49.8062 25.9245L52.4093 25.2986L50.542 17.8038L55.1927 24.6293L57.7558 24.0131L54.6388 11.502L52.0156 12.1328ZM42.544 26.6276L38.4393 20.1681C38.2575 19.882 38.0147 19.8317 37.7117 20.0175L36.8723 20.5323C36.5575 20.7253 36.4911 20.9652 36.6731 21.2513L40.7777 27.7108C40.9598 27.9971 41.208 28.0437 41.5228 27.8507L42.3622 27.3359C42.6652 27.1501 42.726 26.9141 42.544 26.6276ZM45.2521 25.4205C46.06 26.6918 45.7295 27.7778 44.2604 28.6786L41.917 30.1157C40.4363 31.0237 39.2922 30.842 38.4843 29.5707L33.9539 22.4412C33.1534 21.1816 33.4933 20.0976 34.974 19.1896L37.3174 17.7525C38.7865 16.8517 39.9212 17.0312 40.7217 18.291L45.2521 25.4205ZM26.5725 25.6886L36.8868 33.6405L35.2832 35.6479L28.3583 30.3091L32.0015 35.2289L30.6524 36.9176L24.9381 34.6232L31.8468 39.9495L30.2431 41.9568L19.9287 34.0049L21.9142 31.5196L29.0889 34.3478L24.587 28.1739L26.5725 25.6886Z" fill="#141414"/>
</g>
<g id="Group 18">
<path id="Fill 13" fill-rule="evenodd" clip-rule="evenodd" d="M73.7983 44.1006C72.8406 45.0584 72.6011 46.4153 72.9204 47.6126L71.0047 49.4484C68.4504 47.6925 65.3375 46.6548 61.9851 46.6548C58.6328 46.6548 55.5198 47.6925 52.9656 49.4484L51.0499 47.6126C51.3692 46.4153 51.0499 45.0584 50.172 44.1006C48.7351 42.6639 46.5002 42.6639 45.0635 44.1006C43.6267 45.5373 43.7065 47.8521 45.0635 49.209C46.0212 50.1669 47.2984 50.4862 48.4957 50.1669L50.172 51.843C47.4581 54.7165 45.7819 58.6277 45.7819 62.9379V74.6714C45.7819 78.1834 48.5755 80.977 52.0875 80.977C54.3225 80.977 56.1584 79.9393 57.2758 78.1834C58.3135 80.4184 60.2291 80.977 61.9851 80.977C63.6614 80.977 65.6568 80.4184 66.6945 78.2633C66.9339 78.5825 67.1734 78.822 67.4129 79.1412C68.6101 80.3386 70.2065 80.977 71.8827 80.977C75.315 80.977 78.1884 78.1037 78.1884 74.6714V62.9379C78.1884 58.6277 76.5122 54.7165 73.7983 51.843L75.4746 50.1669C76.592 50.4862 77.9491 50.1669 78.9068 49.209C80.3436 47.7724 80.3436 45.5373 78.9068 44.1006C78.1885 43.3822 77.2706 43.0231 76.3526 43.0231C75.4347 43.0231 74.5168 43.3822 73.7983 44.1006ZM49.4535 74.7512V62.9379C49.3737 55.9937 55.0408 50.3266 61.9851 50.3266C68.9295 50.3266 74.5966 55.9937 74.5966 63.0177V74.7512C74.5966 76.2678 73.3992 77.4651 71.8827 77.4651C71.1644 77.4651 70.5258 77.1456 69.9671 76.6668C69.3286 76.0283 69.2488 75.5494 69.1689 74.5916C69.0891 73.1548 67.9716 72.0374 66.455 72.0374C65.0183 72.0374 63.7412 73.2347 63.7412 74.7512C63.7412 77.3055 63.0228 77.4651 61.9851 77.4651C60.9475 77.4651 60.2291 77.3055 60.2291 74.6714C60.2291 73.2347 59.0318 72.0374 57.5153 72.0374C56.0785 72.0374 54.961 73.0749 54.8013 74.5117C54.6417 76.4274 53.6839 77.4651 52.1673 77.4651C50.6508 77.4651 49.4535 76.2678 49.4535 74.7512ZM54.8013 61.1819C54.8013 65.1728 57.9942 68.4454 61.9851 68.4454C65.9762 68.4454 69.1689 65.1728 69.1689 61.1819C69.1689 57.191 65.9762 53.9183 61.9851 53.9183C57.9942 53.9183 54.8013 57.191 54.8013 61.1819ZM58.3933 61.1021C58.3933 59.1067 59.9897 57.5101 61.9851 57.5101C63.9806 57.5101 65.577 59.1067 65.577 61.1021C65.577 63.0975 63.9806 64.6939 61.9851 64.6939C59.9897 64.6939 58.3933 63.0975 58.3933 61.1021Z" fill="#FF8200"/>
<path id="Fill 16" fill-rule="evenodd" clip-rule="evenodd" d="M73.7983 43.2026C72.8406 44.1604 72.6011 45.5174 72.9204 46.7147L71.0047 48.5505C68.4504 46.7944 65.3375 45.7568 61.9851 45.7568C58.6328 45.7568 55.5198 46.7944 52.9656 48.5505L51.0499 46.7147C51.3692 45.5174 51.0499 44.1604 50.172 43.2026C48.7351 41.7658 46.5002 41.7658 45.0635 43.2026C43.6267 44.6393 43.7065 46.9541 45.0635 48.311C46.0212 49.2689 47.2984 49.5881 48.4957 49.2689L50.172 50.9451C47.4581 53.8186 45.7819 57.7297 45.7819 62.04V73.7734C45.7819 77.2854 48.5755 80.0791 52.0875 80.0791C54.3225 80.0791 56.1584 79.0415 57.2758 77.2854C58.3135 79.5204 60.2291 80.0791 61.9851 80.0791C63.6614 80.0791 65.6568 79.5204 66.6945 77.3652C66.9339 77.6845 67.1734 77.9238 67.4129 78.2433C68.6101 79.4405 70.2065 80.0791 71.8827 80.0791C75.315 80.0791 78.1884 77.2056 78.1884 73.7734V62.04C78.1884 57.7297 76.5122 53.8186 73.7983 50.9451L75.4746 49.2689C76.592 49.5881 77.9491 49.2689 78.9068 48.311C80.3436 46.8743 80.3436 44.6393 78.9068 43.2026C78.1885 42.4841 77.2706 42.125 76.3526 42.125C75.4347 42.125 74.5168 42.4841 73.7983 43.2026ZM49.4535 73.8532V62.04C49.3737 55.0956 55.0408 49.4285 61.9851 49.4285C68.9295 49.4285 74.5966 55.0956 74.5966 62.1198V73.8532C74.5966 75.3696 73.3992 76.567 71.8827 76.567C71.1644 76.567 70.5258 76.2478 69.9671 75.7689C69.3286 75.1302 69.2488 74.6514 69.1689 73.6935C69.0891 72.2568 67.9716 71.1393 66.455 71.1393C65.0183 71.1393 63.7412 72.3365 63.7412 73.8532C63.7412 76.4074 63.0228 76.567 61.9851 76.567C60.9475 76.567 60.2291 76.4074 60.2291 73.7734C60.2291 72.3365 59.0318 71.1393 57.5153 71.1393C56.0785 71.1393 54.961 72.177 54.8013 73.6137C54.6417 75.5294 53.6839 76.567 52.1673 76.567C50.6508 76.567 49.4535 75.3696 49.4535 73.8532ZM54.8013 60.2839C54.8013 64.2748 57.9942 67.5475 61.9851 67.5475C65.9762 67.5475 69.1689 64.2748 69.1689 60.2839C69.1689 56.2928 65.9762 53.0204 61.9851 53.0204C57.9942 53.0204 54.8013 56.2928 54.8013 60.2839ZM58.3933 60.2041C58.3933 58.2086 59.9897 56.6123 61.9851 56.6123C63.9806 56.6123 65.577 58.2086 65.577 60.2041C65.577 62.1996 63.9806 63.7959 61.9851 63.7959C59.9897 63.7959 58.3933 62.1996 58.3933 60.2041Z" fill="#F8FE11"/>
</g>
<path id="ball" fill-rule="evenodd" clip-rule="evenodd" d="M109.417 58.8685C111.147 60.598 111.147 63.402 109.417 65.1315C107.688 66.8609 104.884 66.8609 103.155 65.1315C101.425 63.402 101.425 60.598 103.155 58.8685C104.884 57.139 107.688 57.139 109.417 58.8685ZM107.159 63.7559H105.413L105.075 64.2221L105.613 65.7204C106.058 65.8005 106.514 65.8005 106.959 65.7204L107.497 64.2221L107.159 63.7559ZM109.161 64.4548L108.09 64.4873L107.728 65.4956C108.176 65.3111 108.595 65.037 108.959 64.6732L109.063 64.5655L109.161 64.4548ZM103.613 64.6732C103.976 65.0369 104.396 65.3109 104.843 65.4955L104.482 64.4873L103.411 64.4548C103.475 64.5296 103.542 64.6024 103.613 64.6732ZM103.802 61.5394L102.541 62.5153C102.601 62.9572 102.74 63.3905 102.956 63.7928L104.55 63.841L104.889 63.3739L104.35 61.7179L103.802 61.5394ZM108.77 61.5394L108.221 61.7179L107.683 63.3739L108.021 63.841L109.615 63.7928C109.832 63.3906 109.971 62.9575 110.031 62.5157L108.77 61.5394ZM106.286 60.6399L104.988 61.5826L105.484 63.1082H107.087L107.583 61.5826L106.286 60.6399ZM109.507 60.0194L109.205 61.0555L110.056 61.7143C110.015 61.1726 109.858 60.638 109.585 60.151L109.507 60.0194ZM102.516 61.7138L103.367 61.0555L103.065 60.0199C102.744 60.541 102.561 61.1232 102.516 61.7138ZM103.613 59.3268L103.555 59.386L104.003 60.9233L104.55 61.1009L105.962 60.0747V59.4988L104.637 58.5968C104.267 58.7761 103.92 59.0195 103.613 59.3268ZM107.935 58.5968L106.61 59.4988V60.0747L108.022 61.1009L108.568 60.9233L109.017 59.386L108.959 59.3268L108.87 59.24C108.626 59.0114 108.359 58.8212 108.077 58.6695L107.935 58.5968ZM105.391 58.3263L106.286 58.9354L107.18 58.3262C106.593 58.1839 105.978 58.1839 105.391 58.3263Z" fill="#381579"/>
<path id="ball copy" fill-rule="evenodd" clip-rule="evenodd" d="M20.8462 58.8685C22.5756 60.598 22.5756 63.402 20.8462 65.1315C19.1167 66.8609 16.3127 66.8609 14.5832 65.1315C12.8538 63.402 12.8538 60.598 14.5832 58.8685C16.3127 57.139 19.1167 57.139 20.8462 58.8685ZM18.5875 63.7559H16.8415L16.5037 64.2221L17.0416 65.7204C17.4865 65.8005 17.9429 65.8005 18.3878 65.7204L18.9253 64.2221L18.5875 63.7559ZM20.59 64.4548L19.5185 64.4873L19.1569 65.4956C19.6047 65.3111 20.0241 65.037 20.3879 64.6732L20.4915 64.5655L20.59 64.4548ZM15.0415 64.6732C15.4052 65.0369 15.8245 65.3109 16.272 65.4955L15.9104 64.4873L14.8394 64.4548C14.9034 64.5296 14.9707 64.6024 15.0415 64.6732ZM15.2304 61.5394L13.9693 62.5153C14.0298 62.9572 14.1684 63.3905 14.3852 63.7928L15.9791 63.841L16.3174 63.3739L15.7791 61.7179L15.2304 61.5394ZM20.1986 61.5394L19.6499 61.7179L19.1115 63.3739L19.4498 63.841L21.0442 63.7928C21.2609 63.3906 21.3996 62.9575 21.4601 62.5157L20.1986 61.5394ZM17.7147 60.6399L16.4168 61.5826L16.9128 63.1082H18.5162L19.0122 61.5826L17.7147 60.6399ZM20.9359 60.0194L20.6332 61.0555L21.4844 61.7143C21.4436 61.1726 21.2866 60.638 21.0133 60.151L20.9359 60.0194ZM13.945 61.7138L14.7957 61.0555L14.4933 60.0199C14.1723 60.541 13.9896 61.1232 13.945 61.7138ZM15.0415 59.3268L14.9832 59.386L15.4322 60.9233L15.9783 61.1009L17.3902 60.0747V59.4988L16.0661 58.5968C15.6958 58.7761 15.3488 59.0195 15.0415 59.3268ZM19.3633 58.5968L18.0383 59.4988V60.0747L19.4507 61.1009L19.9968 60.9233L20.4457 59.386L20.3879 59.3268L20.2982 59.24C20.0544 59.0114 19.7876 58.8212 19.5056 58.6695L19.3633 58.5968ZM16.8201 58.3263L17.7147 58.9354L18.6088 58.3262C18.0218 58.1839 17.4072 58.1839 16.8201 58.3263Z" fill="#381579"/>
</g>
</svg>
