<svg width="24" height="24" viewBox="0 0 24 24" fill="none" xmlns="http://www.w3.org/2000/svg">
<g id="Twitter">
<path id="Vector" d="M21 6.2145C20.3385 6.5075 19.627 6.703 18.8765 6.7955C19.6395 6.3425 20.2265 5.62 20.502 4.7665C19.788 5.185 18.997 5.4925 18.1555 5.6545C17.4835 4.942 16.525 4.5 15.463 4.5C13.423 4.5 11.7695 6.139 11.7695 8.16C11.7695 8.446 11.803 8.7245 11.866 8.995C8.79703 8.841 6.07503 7.382 4.25404 5.168C3.93404 5.709 3.75403 6.3425 3.75403 7.011C3.75403 8.2815 4.40454 9.4 5.39653 10.059C4.79103 10.0405 4.22103 9.872 3.72203 9.602C3.72203 9.613 3.72203 9.6295 3.72203 9.645C3.72203 11.4205 4.99553 12.899 6.68353 13.2355C6.37503 13.32 6.04903 13.367 5.71303 13.367C5.47453 13.367 5.24203 13.34 5.01704 13.2995C5.48704 14.7505 6.85053 15.811 8.46603 15.8425C7.20203 16.8225 5.61003 17.4095 3.87903 17.4095C3.58003 17.4095 3.28754 17.3925 2.99854 17.3575C4.63403 18.393 6.57603 19 8.66053 19C15.453 19 19.169 13.422 19.169 8.583C19.169 8.4245 19.164 8.2665 19.1565 8.1105C19.8815 7.5985 20.5065 6.9525 21 6.2145Z" fill="#03A9F4"/>
</g>
</svg>
